<?xml version="1.0" standalone="yes"?>

<svg version="1.1" viewBox="0.0 0.0 551.9816272965879 361.0839895013123" fill="none" stroke="none" stroke-linecap="square" stroke-miterlimit="10" xmlns="http://www.w3.org/2000/svg" xmlns:xlink="http://www.w3.org/1999/xlink"><clipPath id="p.0"><path d="m0 0l551.9816 0l0 361.08398l-551.9816 0l0 -361.08398z" clip-rule="nonzero"></path></clipPath><g clip-path="url(#p.0)"><path fill="#000000" fill-opacity="0.0" d="m0 0l551.9816 0l0 361.08398l-551.9816 0z" fill-rule="nonzero"></path><path fill="#fff2cc" d="m244.39842 338.11548l-18.423248 0l0 0c-66.89169 0 -121.11812 -54.22641 -121.11812 -121.1181l0 0l-19.387764 0l39.253906 -39.732285l39.253914 39.732285l-19.387772 0l0 0l0 0c0 44.94815 36.437683 81.38583 81.38583 81.38583l18.423248 0z" fill-rule="nonzero"></path><path stroke="#000000" stroke-width="1.0" stroke-linejoin="round" stroke-linecap="butt" d="m244.39842 338.11548l-18.423248 0l0 0c-66.89169 0 -121.11812 -54.22641 -121.11812 -121.1181l0 0l-19.387764 0l39.253906 -39.732285l39.253914 39.732285l-19.387772 0l0 0l0 0c0 44.94815 36.437683 81.38583 81.38583 81.38583l18.423248 0z" fill-rule="nonzero"></path><path fill="#cfe2f3" d="m104.33806 166.45407l0 -18.423264l0 0c0 -66.891685 54.226425 -121.11811 121.1181 -121.11811l0 0l0 -19.387764l39.732285 39.25391l-39.732285 39.253902l0 -19.387764l0 0l0 0c-44.94815 0 -81.38582 36.437675 -81.38582 81.385826l0 18.423264z" fill-rule="nonzero"></path><path stroke="#000000" stroke-width="1.0" stroke-linejoin="round" stroke-linecap="butt" d="m104.33806 166.45407l0 -18.423264l0 0c0 -66.891685 54.226425 -121.11811 121.1181 -121.11811l0 0l0 -19.387764l39.732285 39.25391l-39.732285 39.253902l0 -19.387764l0 0l0 0c-44.94815 0 -81.38582 36.437675 -81.38582 81.385826l0 18.423264z" fill-rule="nonzero"></path><path fill="#d9ead3" d="m275.4483 18.328083l18.423248 0l0 0c66.89169 0 121.1181 54.22643 121.1181 121.11812l0 0l19.387787 0l-39.253906 39.732285l-39.253906 -39.732285l19.387756 0l0 0l0 0c0 -44.94815 -36.437683 -81.38583 -81.38583 -81.38583l-18.423248 0z" fill-rule="nonzero"></path><path stroke="#000000" stroke-width="1.0" stroke-linejoin="round" stroke-linecap="butt" d="m275.4483 18.328083l18.423248 0l0 0c66.89169 0 121.1181 54.22643 121.1181 121.11812l0 0l19.387787 0l-39.253906 39.732285l-39.253906 -39.732285l19.387756 0l0 0l0 0c0 -44.94815 -36.437683 -81.38583 -81.38583 -81.38583l-18.423248 0z" fill-rule="nonzero"></path><path fill="#e6b8af" d="m420.29605 194.62993l0 18.423248l0 0c0 66.89168 -54.22641 121.11812 -121.1181 121.11812l0 0l0 19.387756l-39.73227 -39.253906l39.73227 -39.253906l0 19.387756l0 0l0 0c44.94815 0 81.38583 -36.437653 81.38583 -81.38582l0 -18.423248z" fill-rule="nonzero"></path><path stroke="#000000" stroke-width="1.0" stroke-linejoin="round" stroke-linecap="butt" d="m420.29605 194.62993l0 18.423248l0 0c0 66.89168 -54.22641 121.11812 -121.1181 121.11812l0 0l0 19.387756l-39.73227 -39.253906l39.73227 -39.253906l0 19.387756l0 0l0 0c44.94815 0 81.38583 -36.437653 81.38583 -81.38582l0 -18.423248z" fill-rule="nonzero"></path><path fill="#000000" fill-opacity="0.0" d="m2.9480312 50.328083l123.18111 0l0 48.818897l-123.18111 0z" fill-rule="nonzero"></path><path fill="#0b5394" d="m26.07303 73.74309q0 -3.640625 -1.875 -5.28125q-1.875 -1.65625 -5.46875 -1.65625l-2.71875 0l0 13.796875l3.0625 0q3.421875 0 5.203125 -1.734375q1.796875 -1.734375 1.796875 -5.125zm2.171875 -0.0625q0 4.234375 -2.40625 6.46875q-2.40625 2.21875 -6.703125 2.21875l-5.140624 0l0 -17.328125l4.796874 0q2.171875 0 3.875 0.515625q1.71875 0.5 2.96875 1.546875q1.265625 1.03125 1.9375 2.703125q0.671875 1.65625 0.671875 3.875zm10.398439 -1.796875q-0.859375 -1.03125 -2.359375 -1.03125q-1.5 0 -2.453125 1.0625q-0.953125 1.0625 -1.109375 2.90625l6.78125 0q0 -1.90625 -0.859375 -2.9375zm-1.984375 10.75q-2.796875 0 -4.40625 -1.78125q-1.6093769 -1.78125 -1.6093769 -4.875q0 -2.984375 1.5468769 -4.84375q1.5625 -1.859375 4.109375 -1.890625q2.390625 0 3.78125 1.640625q1.40625 1.625 1.40625 4.359375q0 0.140625 0 0.515625q0 0.375 0 0.53125l-8.828125 0q0.03125 2.203125 1.125 3.421875q1.09375 1.21875 2.953125 1.21875q2.03125 0 4.09375 -1.078125l0.296875 1.59375q-1.953125 1.1875 -4.46875 1.1875zm11.390625 0q-1.3125 0 -2.421875 -0.28125q-1.109375 -0.28125 -1.796875 -0.71875l0.234375 -1.65625q1.96875 1.046875 3.84375 1.046875q2.859375 0 2.953125 -2.015625q0 -0.859375 -0.609375 -1.34375q-0.609375 -0.5 -2.390625 -1.109375l-0.984375 -0.34375q-1.6875 -0.5625 -2.40625 -1.390625q-0.71875 -0.828125 -0.734375 -2.078125q0 -1.515625 1.21875 -2.5q1.21875 -1.0 3.328125 -1.0q2.171875 0 3.96875 0.84375l-0.578125 1.5q-1.8125 -0.75 -3.390625 -0.75q-1.234375 0 -1.9375 0.484375q-0.6875 0.484375 -0.6875 1.359375q0 0.75 0.5 1.15625q0.5 0.390625 2.015625 0.90625q0.390625 0.140625 0.96875 0.328125q1.953125 0.640625 2.75 1.5q0.8125 0.859375 0.8125 2.328125q-0.015625 1.78125 -1.28125 2.765625q-1.25 0.96875 -3.375 0.96875zm9.636719 -13.125l0 12.859375l-1.96875 0l0 -12.859375l1.96875 0zm0 -4.671875l0 2.3125l-1.96875 0l0 -2.3125l1.96875 0zm8.675777 15.859375q1.0 0 1.75 -0.34375q0.75 -0.359375 1.171875 -0.984375q0.421875 -0.625 0.625 -1.375q0.203125 -0.765625 0.203125 -1.671875l0 -0.953125q0 -0.9375 -0.21875 -1.71875q-0.203125 -0.796875 -0.640625 -1.421875q-0.4375 -0.625 -1.171875 -0.96875q-0.734375 -0.359375 -1.703125 -0.359375q-0.8125 0 -1.484375 0.3125q-0.65625 0.296875 -1.0937462 0.796875q-0.421875 0.484375 -0.71875 1.15625q-0.296875 0.65625 -0.421875 1.34375q-0.125 0.671875 -0.125 1.359375q0 0.6875 0.140625 1.359375q0.140625 0.65625 0.4375 1.296875q0.3125 0.625 0.734375 1.109375q0.4374962 0.46875 1.0781212 0.765625q0.65625 0.296875 1.4375 0.296875zm-3.0156212 7.5625l-0.171875 -1.78125l2.3906212 0q1.0 0 1.734375 -0.140625q0.734375 -0.140625 1.21875 -0.46875q0.5 -0.3125 0.796875 -0.703125q0.3125 -0.390625 0.46875 -1.015625q0.15625 -0.625 0.203125 -1.25q0.0625 -0.609375 0.0625 -1.5l0 -1.140625q-0.703125 1.0 -1.625 1.546875q-0.921875 0.546875 -2.359375 0.546875q-1.09375 0 -2.03125 -0.375q-0.9374962 -0.390625 -1.5781212 -1.015625q-0.625 -0.640625 -1.078125 -1.46875q-0.453125 -0.828125 -0.65625 -1.71875q-0.203125 -0.890625 -0.203125 -1.796875q0 -1.40625 0.34375 -2.59375q0.34375 -1.203125 1.015625 -2.140625q0.6875 -0.9375 1.796875 -1.46875q1.1093712 -0.53125 2.5312462 -0.53125q1.265625 0 2.203125 0.484375q0.953125 0.484375 1.703125 1.5l0 -1.71875l1.90625 0l0 11.9375q0 0.8125 -0.046875 1.421875q-0.03125 0.625 -0.1875 1.375q-0.15625 0.75 -0.4375 1.28125q-0.265625 0.546875 -0.75 1.09375q-0.484375 0.546875 -1.15625 0.875q-0.671875 0.34375 -1.671875 0.546875q-1.0 0.21875 -2.25 0.21875l-2.1718712 0zm11.925777 -5.890625l0 -12.859375l1.640625 0l0.25 1.84375q0.765625 -0.953125 1.90625 -1.53125q1.140625 -0.578125 2.46875 -0.578125q2.21875 0 3.28125 1.25q1.078125 1.25 1.078125 3.828125l0 8.046875l-1.953125 0q0 -7.734375 -0.015625 -8.28125q-0.046875 -1.640625 -0.671875 -2.40625q-0.609375 -0.765625 -2.046875 -0.765625q-1.515625 0 -2.53125 0.734375q-1.0 0.71875 -1.296875 1.875q-0.125 0.796875 -0.125 1.8125l0 7.03125l-1.984375 0z" fill-rule="nonzero"></path><path fill="#000000" fill-opacity="0.0" d="m397.758 50.328083l151.27557 0l0 48.818897l-151.27557 0z" fill-rule="nonzero"></path><path fill="#38761d" d="m437.9173 66.64934l0 5.859375q0.484375 0 1.984375 0.03125q1.515625 0.015625 2.328125 0.015625q2.234375 0 3.109375 -0.734375q0.890625 -0.75 0.890625 -2.375q0 -1.40625 -0.84375 -2.09375q-0.84375 -0.703125 -2.828125 -0.703125l-4.640625 0zm11.109375 15.71875l-2.34375 0l-2.390625 -5.4375q-0.96875 -2.1875 -1.234375 -2.640625q-0.859375 0.0625 -2.03125 0.0625l-3.109375 -0.09375l0 8.109375l-2.078125 0l0 -17.53125l5.546875 0q0.96875 0 1.703125 0.046875q0.734375 0.046875 1.46875 0.171875q0.734375 0.125 1.265625 0.34375q0.546875 0.203125 1.015625 0.5625q0.46875 0.34375 0.75 0.828125q0.296875 0.46875 0.453125 1.140625q0.171875 0.65625 0.171875 1.484375q0 1.640625 -0.875 2.828125q-0.859375 1.1875 -2.4375 1.640625q0 0.015625 0.234375 0.421875q0.234375 0.390625 0.546875 0.984375q0.328125 0.578125 0.515625 0.953125l2.828125 6.125zm9.878906 -10.484375q-0.859375 -1.03125 -2.359375 -1.03125q-1.5 0 -2.453125 1.0625q-0.953125 1.0625 -1.109375 2.90625l6.78125 0q0 -1.90625 -0.859375 -2.9375zm-1.984375 10.75q-2.796875 0 -4.40625 -1.78125q-1.609375 -1.78125 -1.609375 -4.875q0 -2.984375 1.546875 -4.84375q1.5625 -1.859375 4.109375 -1.890625q2.390625 0 3.78125 1.640625q1.40625 1.625 1.40625 4.359375q0 0.140625 0 0.515625q0 0.375 0 0.53125l-8.828125 0q0.03125 2.203125 1.125 3.421875q1.09375 1.21875 2.953125 1.21875q2.03125 0 4.09375 -1.078125l0.296875 1.59375q-1.953125 1.1875 -4.46875 1.1875zm10.84375 -0.265625l-4.984375 -12.859375l2.109375 0l2.828125 7.640625q0 0 1.171875 3.265625q0.40625 -1.265625 1.109375 -3.234375q0.890625 -2.5 2.765625 -7.671875l2.078125 0l-4.9375 12.859375l-2.140625 0zm11.097656 -12.859375l0 12.859375l-1.96875 0l0 -12.859375l1.96875 0zm0 -4.671875l0 2.3125l-1.96875 0l0 -2.3125l1.96875 0zm11.097656 7.046875q-0.859375 -1.03125 -2.359375 -1.03125q-1.5 0 -2.453125 1.0625q-0.953125 1.0625 -1.109375 2.90625l6.78125 0q0 -1.90625 -0.859375 -2.9375zm-1.984375 10.75q-2.796875 0 -4.40625 -1.78125q-1.609375 -1.78125 -1.609375 -4.875q0 -2.984375 1.546875 -4.84375q1.5625 -1.859375 4.109375 -1.890625q2.390625 0 3.78125 1.640625q1.40625 1.625 1.40625 4.359375q0 0.140625 0 0.515625q0 0.375 0 0.53125l-8.828125 0q0.03125 2.203125 1.125 3.421875q1.09375 1.21875 2.953125 1.21875q2.03125 0 4.09375 -1.078125l0.296875 1.59375q-1.953125 1.1875 -4.46875 1.1875zm18.65625 -0.265625q-2.71875 -8.65625 -3.359375 -10.765625q-0.359375 1.28125 -0.828125 2.78125q-0.46875 1.5 -0.828125 2.578125q-0.34375 1.078125 -0.90625 2.796875q-0.5625 1.703125 -0.859375 2.609375l-2.109375 0l-3.671875 -12.859375l2.03125 0l2.75 10.53125q0.578125 -1.875 3.375 -10.53125l2.21875 0q2.796875 8.84375 3.28125 10.484375l2.71875 -10.484375l2.0 0l-3.703125 12.859375l-2.109375 0z" fill-rule="nonzero"></path><path fill="#000000" fill-opacity="0.0" d="m397.758 264.11548l151.27557 0l0 48.81891l-151.27557 0z" fill-rule="nonzero"></path><path fill="#85200c" d="m419.15753 296.1555l-2.015625 0l0 -17.328125l2.015625 0l0 17.328125zm20.171875 0l0 -6.6875q0 -0.9375 -0.046875 -1.5625q-0.03125 -0.640625 -0.1875 -1.296875q-0.140625 -0.65625 -0.40625 -1.03125q-0.265625 -0.390625 -0.734375 -0.625q-0.46875 -0.25 -1.125 -0.25q-1.28125 0 -2.1875 0.703125q-0.90625 0.6875 -1.296875 1.9375q-0.109375 0.84375 -0.109375 1.796875l0 7.015625l-1.953125 0l0 -6.90625q0 -0.859375 -0.0625 -1.5q-0.0625 -0.640625 -0.234375 -1.234375q-0.15625 -0.609375 -0.4375 -0.984375q-0.265625 -0.375 -0.71875 -0.59375q-0.453125 -0.234375 -1.09375 -0.234375q-1.40625 0 -2.359375 0.71875q-0.953125 0.71875 -1.28125 1.890625q-0.109375 0.90625 -0.109375 1.96875l0 6.875l-1.953125 0q-0.03125 -12.0625 -0.03125 -12.859375l1.640625 0l0.25 1.84375q0.59375 -0.890625 1.671875 -1.5q1.078125 -0.609375 2.4375 -0.609375q0.71875 0 1.3125 0.15625q0.609375 0.140625 1.015625 0.359375q0.40625 0.21875 0.71875 0.53125q0.328125 0.3125 0.5 0.609375q0.171875 0.296875 0.296875 0.625q1.40625 -2.28125 4.296875 -2.28125q2.140625 0 3.140625 1.234375q1.0 1.21875 1.0 3.609375l0 8.28125l-1.953125 0zm4.4492188 5.578125l0 -18.4375l1.734375 0l0.1875 1.75q1.6875 -2.015625 4.046875 -2.015625q1.765625 0 2.984375 0.875q1.21875 0.875 1.796875 2.375q0.578125 1.5 0.578125 3.515625q0 1.921875 -0.640625 3.421875q-0.625 1.484375 -1.859375 2.34375q-1.21875 0.859375 -2.859375 0.859375q-1.234375 0 -2.328125 -0.546875q-1.09375 -0.5625 -1.75 -1.484375q0.078125 1.265625 0.078125 2.46875l0 4.75l-1.96875 0.125zm5.703125 -6.96875q0.890625 0 1.59375 -0.390625q0.703125 -0.40625 1.125 -1.109375q0.4375 -0.703125 0.65625 -1.59375q0.234375 -0.90625 0.234375 -1.953125q0 -2.203125 -0.9375 -3.609375q-0.921875 -1.421875 -2.703125 -1.421875q-3.71875 0 -3.71875 4.828125q0 2.609375 0.875 3.9375q0.875 1.3125 2.875 1.3125zm11.839844 1.625q-1.875 0 -2.65625 -1.0q-0.78125 -1.015625 -0.78125 -3.515625l0 -13.5625l1.9375 -0.125l0 12.921875q0 0.796875 0.015625 1.28125q0.03125 0.46875 0.09375 0.9375q0.078125 0.453125 0.1875 0.6875q0.125 0.234375 0.34375 0.4375q0.21875 0.1875 0.53125 0.25q0.3125 0.0625 0.765625 0.0625q0.375 0 1.484375 -0.140625l0.09375 1.5625q-1.203125 0.203125 -2.015625 0.203125zm10.621094 -10.71875q-0.859375 -1.03125 -2.359375 -1.03125q-1.5 0 -2.453125 1.0625q-0.953125 1.0625 -1.109375 2.90625l6.78125 0q0 -1.90625 -0.859375 -2.9375zm-1.984375 10.75q-2.796875 0 -4.40625 -1.78125q-1.609375 -1.78125 -1.609375 -4.875q0 -2.984375 1.546875 -4.84375q1.5625 -1.859375 4.109375 -1.890625q2.390625 0 3.78125 1.640625q1.40625 1.625 1.40625 4.359375q0 0.140625 0 0.515625q0 0.375 0 0.53125l-8.828125 0q0.03125 2.203125 1.125 3.421875q1.09375 1.21875 2.953125 1.21875q2.03125 0 4.09375 -1.078125l0.296875 1.59375q-1.953125 1.1875 -4.46875 1.1875zm23.875 -0.265625l0 -6.6875q0 -0.9375 -0.046875 -1.5625q-0.03125 -0.640625 -0.1875 -1.296875q-0.140625 -0.65625 -0.40625 -1.03125q-0.265625 -0.390625 -0.734375 -0.625q-0.46875 -0.25 -1.125 -0.25q-1.28125 0 -2.1875 0.703125q-0.90625 0.6875 -1.296875 1.9375q-0.109375 0.84375 -0.109375 1.796875l0 7.015625l-1.953125 0l0 -6.90625q0 -0.859375 -0.0625 -1.5q-0.0625 -0.640625 -0.234375 -1.234375q-0.15625 -0.609375 -0.4375 -0.984375q-0.265625 -0.375 -0.71875 -0.59375q-0.453125 -0.234375 -1.09375 -0.234375q-1.40625 0 -2.359375 0.71875q-0.953125 0.71875 -1.28125 1.890625q-0.109375 0.90625 -0.109375 1.96875l0 6.875l-1.953125 0q-0.03125 -12.0625 -0.03125 -12.859375l1.640625 0l0.25 1.84375q0.59375 -0.890625 1.671875 -1.5q1.078125 -0.609375 2.4375 -0.609375q0.71875 0 1.3125 0.15625q0.609375 0.140625 1.015625 0.359375q0.40625 0.21875 0.71875 0.53125q0.328125 0.3125 0.5 0.609375q0.171875 0.296875 0.296875 0.625q1.40625 -2.28125 4.296875 -2.28125q2.140625 0 3.140625 1.234375q1.0 1.21875 1.0 3.609375l0 8.28125l-1.953125 0zm11.871094 -10.484375q-0.859375 -1.03125 -2.359375 -1.03125q-1.5 0 -2.453125 1.0625q-0.953125 1.0625 -1.109375 2.90625l6.78125 0q0 -1.90625 -0.859375 -2.9375zm-1.984375 10.75q-2.796875 0 -4.40625 -1.78125q-1.609375 -1.78125 -1.609375 -4.875q0 -2.984375 1.546875 -4.84375q1.5625 -1.859375 4.109375 -1.890625q2.390625 0 3.78125 1.640625q1.40625 1.625 1.40625 4.359375q0 0.140625 0 0.515625q0 0.375 0 0.53125l-8.828125 0q0.03125 2.203125 1.125 3.421875q1.09375 1.21875 2.953125 1.21875q2.03125 0 4.09375 -1.078125l0.296875 1.59375q-1.953125 1.1875 -4.46875 1.1875zm7.546875 -0.265625l0 -12.859375l1.640625 0l0.25 1.84375q0.765625 -0.953125 1.90625 -1.53125q1.140625 -0.578125 2.46875 -0.578125q2.21875 0 3.28125 1.25q1.078125 1.25 1.078125 3.828125l0 8.046875l-1.953125 0q0 -7.734375 -0.015625 -8.28125q-0.046875 -1.640625 -0.671875 -2.40625q-0.609375 -0.765625 -2.046875 -0.765625q-1.515625 0 -2.53125 0.734375q-1.0 0.71875 -1.296875 1.875q-0.125 0.796875 -0.125 1.8125l0 7.03125l-1.984375 0zm17.984375 0.234375q-1.90625 0 -2.703125 -0.921875q-0.796875 -0.9375 -0.84375 -3.0l0 -7.71875l-1.90625 0l0.078125 -1.28125l1.828125 -0.171875l0.65625 -2.9375l1.296875 -0.046875l0 2.984375l3.578125 0l0 1.453125l-3.578125 0l0 7.375q0 1.46875 0.4375 2.0625q0.453125 0.59375 1.53125 0.59375q0.390625 0 1.671875 -0.1875l0.078125 1.546875q-1.390625 0.25 -2.125 0.25z" fill-rule="nonzero"></path><path fill="#000000" fill-opacity="0.0" d="m2.9480507 264.11548l123.1811 0l0 48.81891l-123.1811 0z" fill-rule="nonzero"></path><path fill="#bf9000" d="m16.104301 296.1555l-2.015626 0l0 -17.328125l2.015626 0l0 17.328125zm7.953125 0.234375q-1.90625 0 -2.703125 -0.921875q-0.796875 -0.9375 -0.84375 -3.0l0 -7.71875l-1.90625 0l0.078125 -1.28125l1.828125 -0.171875l0.65625 -2.9375l1.296875 -0.046875l0 2.984375l3.578125 0l0 1.453125l-3.578125 0l0 7.375q0 1.46875 0.4375 2.0625q0.453125 0.59375 1.53125 0.59375q0.390625 0 1.671875 -0.1875l0.078125 1.546875q-1.390625 0.25 -2.125 0.25zm11.6328125 -10.71875q-0.859375 -1.03125 -2.359375 -1.03125q-1.5 0 -2.453125 1.0625q-0.953125 1.0625 -1.109375 2.90625l6.78125 0q0 -1.90625 -0.859375 -2.9375zm-1.984375 10.75q-2.796875 0 -4.40625 -1.78125q-1.609375 -1.78125 -1.609375 -4.875q0 -2.984375 1.546875 -4.84375q1.5625 -1.859375 4.109375 -1.890625q2.390625 0 3.78125 1.640625q1.40625 1.625 1.40625 4.359375q0 0.140625 0 0.515625q0 0.375 0 0.53125l-8.828125 0q0.03125 2.203125 1.125 3.421875q1.09375 1.21875 2.953125 1.21875q2.03125 0 4.09375 -1.078125l0.296875 1.59375q-1.953125 1.1875 -4.46875 1.1875zm13.3125 -13.234375q0.53125 0 0.96875 0.0625l-0.078125 1.8125q-0.53125 -0.09375 -0.9375 -0.09375q-1.640625 0 -2.671875 1.140625q-1.015625 1.140625 -1.015625 2.828125l0 7.21875l-1.953125 0q-0.015625 -11.84375 -0.015625 -12.859375l1.625 0l0.1875 2.3125q0.671875 -1.09375 1.703125 -1.75q1.03125 -0.671875 2.1875 -0.671875zm6.6953125 11.65625q1.390625 0 2.453125 -0.765625q1.0625 -0.765625 1.375 -2.078125l0 -2.15625q-0.0625 0 -0.71875 0.0625q-0.640625 0.046875 -0.84375 0.0625q-2.546875 0.21875 -3.546875 0.828125q-1.0 0.609375 -1.0 1.953125q0 1.03125 0.609375 1.5625q0.609375 0.53125 1.671875 0.53125zm4.25 1.3125q-0.171875 -0.75 -0.328125 -1.625q-1.078125 1.078125 -2.015625 1.484375q-0.9375 0.40625 -2.203125 0.40625q-1.796875 0 -2.890625 -0.9375q-1.09375 -0.953125 -1.09375 -2.71875q0 -1.96875 1.484375 -2.90625q1.5 -0.953125 4.3125 -1.1875q0.390625 -0.046875 1.15625 -0.109375q0.78125 -0.0625 1.171875 -0.09375l0 -1.140625q0 -1.359375 -0.640625 -2.015625q-0.625 -0.65625 -1.984375 -0.65625q-1.890625 0 -3.828125 0.9375q-0.0625 -0.140625 -0.3125 -0.8125q-0.234375 -0.671875 -0.25 -0.703125q0.859375 -0.46875 2.03125 -0.75q1.171875 -0.296875 2.390625 -0.296875q2.40625 0 3.46875 1.046875q1.0625 1.046875 1.0625 3.5625l0 8.515625l-1.53125 0zm9.0078125 0.234375q-1.90625 0 -2.703125 -0.921875q-0.796875 -0.9375 -0.84375 -3.0l0 -7.71875l-1.90625 0l0.078125 -1.28125l1.828125 -0.171875l0.65625 -2.9375l1.296875 -0.046875l0 2.984375l3.578125 0l0 1.453125l-3.578125 0l0 7.375q0 1.46875 0.4375 2.0625q0.453125 0.59375 1.53125 0.59375q0.390625 0 1.671875 -0.1875l0.078125 1.546875q-1.390625 0.25 -2.125 0.25zm11.6328125 -10.71875q-0.859375 -1.03125 -2.359375 -1.03125q-1.5 0 -2.453125 1.0625q-0.953125 1.0625 -1.109375 2.90625l6.78125 0q0 -1.90625 -0.859375 -2.9375zm-1.984375 10.75q-2.796875 0 -4.40625 -1.78125q-1.609375 -1.78125 -1.609375 -4.875q0 -2.984375 1.546875 -4.84375q1.5625 -1.859375 4.109375 -1.890625q2.390625 0 3.78125 1.640625q1.40625 1.625 1.40625 4.359375q0 0.140625 0 0.515625q0 0.375 0 0.53125l-8.828125 0q0.03125 2.203125 1.125 3.421875q1.09375 1.21875 2.953125 1.21875q2.03125 0 4.09375 -1.078125l0.296875 1.59375q-1.953125 1.1875 -4.46875 1.1875z" fill-rule="nonzero"></path><path fill="#000000" fill-opacity="0.0" d="m112.58215 102.166664l297.16534 0l0 158.92914l-297.16534 0z" fill-rule="nonzero"></path><path fill="#000000" d="m251.65701 132.29292q-3.296875 -9.578133 -3.640625 -10.765633q0 0 -3.796875 10.765633l7.4375 0zm3.578125 9.59375l-2.703125 -7.328125l-9.21875 0l-2.796875 7.328125l-2.75 0l8.875 -23.156258l2.765625 0l8.609375 23.156258l-2.78125 0zm7.875 0l-2.765625 0l0 -23.375008l7.53125 0q1.71875 0 3.109375 0.359375q1.390625 0.359375 2.46875 1.09375q1.078125 0.734375 1.671875 1.96875q0.59375 1.234375 0.59375 2.875q0 1.359375 -0.25 2.4375q-0.25 1.0625076 -0.859375 2.0000076q-0.609375 0.9375 -1.59375 1.5625q-0.984375 0.609375 -2.53125 0.96875q-1.53125 0.34375 -3.5625 0.34375q-1.609375 0 -3.8125 -0.203125l0 9.96875zm4.078125 -12.15625q1.53125 0 2.625 -0.296875q1.09375 -0.296875 1.671875 -0.734375q0.59375 -0.4375 0.921875 -1.1406326q0.34375 -0.703125 0.421875 -1.28125q0.078125 -0.59375 0.078125 -1.421875q0 -1.984375 -1.34375 -2.921875q-1.328125 -0.9375 -3.625 -0.9375l-4.828125 0l0 8.703133q3.015625 0.03125 4.078125 0.03125zm14.53125 12.15625l-2.703125 0l0 -23.109383l2.703125 0l0 23.109383z" fill-rule="nonzero"></path><path fill="#000000" d="m182.37576 168.38667q0 -4.84375 -2.5 -7.046875q-2.5 -2.203125 -7.28125 -2.203125l-3.625 0l0 18.390625l4.078125 0q4.5625 0 6.9375 -2.296875q2.390625 -2.3125 2.390625 -6.84375zm2.890625 -0.078125q0 5.640625 -3.203125 8.609375q-3.203125 2.96875 -8.9375 2.96875l-6.859375 0l0 -23.109375l6.40625 0q2.890625 0 5.171875 0.6875q2.28125 0.671875 3.953125 2.0625q1.6875 1.375 2.578125 3.609375q0.890625 2.21875 0.890625 5.171875zm13.859375 -2.390625q-1.140625 -1.375 -3.140625 -1.375q-2.0 0 -3.265625 1.421875q-1.265625 1.40625 -1.484375 3.859375l9.046875 0q0 -2.546875 -1.15625 -3.90625zm-2.625 14.328125q-3.734375 0 -5.890625 -2.375q-2.140625 -2.375 -2.140625 -6.5q0 -3.984375 2.078125 -6.453125q2.078125 -2.484375 5.46875 -2.53125q3.1875 0 5.046875 2.1875q1.875 2.171875 1.875 5.8125q0 0.1875 -0.015625 0.6875q0 0.5 0 0.71875l-11.765625 0q0.046875 2.921875 1.5 4.5625q1.46875 1.625 3.9375 1.625q2.71875 0 5.453125 -1.4375l0.40625 2.109375q-2.609375 1.59375 -5.953125 1.59375zm14.453125 -0.359375l-6.640625 -17.140625l2.796875 0l3.78125 10.1875q0 0 1.5625 4.34375q0.53125 -1.671875 1.46875 -4.3125q1.1875 -3.328125 3.6875 -10.21875l2.78125 0l-6.59375 17.140625l-2.84375 0zm21.59375 -13.96875q-1.140625 -1.375 -3.140625 -1.375q-2.0 0 -3.265625 1.421875q-1.265625 1.40625 -1.484375 3.859375l9.046875 0q0 -2.546875 -1.15625 -3.90625zm-2.625 14.328125q-3.734375 0 -5.890625 -2.375q-2.140625 -2.375 -2.140625 -6.5q0 -3.984375 2.078125 -6.453125q2.078125 -2.484375 5.46875 -2.53125q3.1875 0 5.046875 2.1875q1.875 2.171875 1.875 5.8125q0 0.1875 -0.015625 0.6875q0 0.5 0 0.71875l-11.765625 0q0.046875 2.921875 1.5 4.5625q1.46875 1.625 3.9375 1.625q2.71875 0 5.453125 -1.4375l0.40625 2.109375q-2.609375 1.59375 -5.953125 1.59375zm14.671875 -0.046875q-2.5 0 -3.546875 -1.34375q-1.03125 -1.34375 -1.03125 -4.671875l0 -18.09375l2.59375 -0.15625l0 17.21875q0 1.0625 0.015625 1.703125q0.03125 0.640625 0.125 1.265625q0.09375 0.609375 0.25 0.921875q0.15625 0.3125 0.453125 0.578125q0.296875 0.25 0.703125 0.34375q0.421875 0.078125 1.03125 0.078125q0.5 0 1.96875 -0.1875l0.140625 2.078125q-1.609375 0.265625 -2.703125 0.265625zm6.1875 -8.84375q0 3.046875 1.34375 4.890625q1.359375 1.828125 3.953125 1.828125q2.5625 0 3.859375 -1.828125q1.3125 -1.828125 1.3125 -4.921875q0 -3.140625 -1.296875 -4.9375q-1.28125 -1.8125 -3.921875 -1.8125q-2.5625 0 -3.90625 1.84375q-1.34375 1.84375 -1.34375 4.9375zm13.171875 -0.046875q0 3.984375 -2.125 6.46875q-2.125 2.46875 -5.875 2.46875q-3.609375 0 -5.75 -2.5q-2.125 -2.5 -2.125 -6.421875q0 -4.0 2.140625 -6.46875q2.140625 -2.46875 5.875 -2.46875q3.671875 0 5.765625 2.484375q2.09375 2.46875 2.09375 6.4375zm3.6875 16.015625l0 -24.578125l2.296875 0l0.25 2.328125q2.25 -2.6875 5.40625 -2.6875q2.34375 0 3.96875 1.171875q1.625 1.171875 2.390625 3.171875q0.78125 2.0 0.78125 4.671875q0 2.5625 -0.84375 4.5625q-0.84375 1.984375 -2.484375 3.140625q-1.625 1.140625 -3.8125 1.140625q-1.65625 0 -3.109375 -0.734375q-1.453125 -0.75 -2.328125 -1.96875q0.09375 1.6875 0.09375 3.28125l0 6.328125l-2.609375 0.171875zm7.59375 -9.28125q1.1875 0 2.125 -0.53125q0.9375 -0.546875 1.515625 -1.484375q0.578125 -0.9375 0.875 -2.125q0.296875 -1.203125 0.296875 -2.59375q0 -2.9375 -1.234375 -4.8125q-1.234375 -1.890625 -3.609375 -1.890625q-4.96875 0 -4.96875 6.421875q0 3.484375 1.15625 5.25q1.171875 1.765625 3.84375 1.765625zm32.9375 1.84375l0 -8.921875q0 -1.25 -0.0625 -2.09375q-0.046875 -0.84375 -0.25 -1.71875q-0.1875 -0.875 -0.546875 -1.375q-0.34375 -0.515625 -0.96875 -0.828125q-0.625 -0.328125 -1.5 -0.328125q-1.71875 0 -2.9375 0.921875q-1.203125 0.921875 -1.71875 2.59375q-0.140625 1.125 -0.140625 2.40625l0 9.34375l-2.609375 0l0 -9.203125q0 -1.15625 -0.078125 -2.0q-0.078125 -0.859375 -0.296875 -1.65625q-0.21875 -0.8125 -0.59375 -1.3125q-0.359375 -0.5 -0.96875 -0.796875q-0.609375 -0.296875 -1.453125 -0.296875q-1.875 0 -3.15625 0.953125q-1.265625 0.953125 -1.703125 2.53125q-0.140625 1.203125 -0.140625 2.609375l0 9.171875l-2.609375 0q-0.03125 -16.078125 -0.03125 -17.140625l2.1875 0l0.328125 2.453125q0.78125 -1.1875 2.21875 -2.0q1.4375 -0.8125 3.265625 -0.8125q0.953125 0 1.75 0.203125q0.8125 0.1875 1.34375 0.484375q0.546875 0.296875 0.96875 0.71875q0.421875 0.40625 0.65625 0.8125q0.234375 0.390625 0.390625 0.828125q1.875 -3.046875 5.734375 -3.046875q2.859375 0 4.1875 1.640625q1.34375 1.625 1.34375 4.828125l0 11.03125l-2.609375 0zm15.8125 -13.96875q-1.140625 -1.375 -3.140625 -1.375q-2.0 0 -3.265625 1.421875q-1.265625 1.40625 -1.484375 3.859375l9.046875 0q0 -2.546875 -1.15625 -3.90625zm-2.625 14.328125q-3.734375 0 -5.890625 -2.375q-2.140625 -2.375 -2.140625 -6.5q0 -3.984375 2.078125 -6.453125q2.078125 -2.484375 5.46875 -2.53125q3.1875 0 5.046875 2.1875q1.875 2.171875 1.875 5.8125q0 0.1875 -0.015625 0.6875q0 0.5 0 0.71875l-11.765625 0q0.046875 2.921875 1.5 4.5625q1.46875 1.625 3.9375 1.625q2.71875 0 5.453125 -1.4375l0.40625 2.109375q-2.609375 1.59375 -5.953125 1.59375zm10.0625 -0.359375l0 -17.140625l2.1875 0l0.328125 2.453125q1.015625 -1.265625 2.53125 -2.03125q1.53125 -0.78125 3.296875 -0.78125q2.96875 0 4.390625 1.671875q1.421875 1.65625 1.421875 5.109375l0 10.71875l-2.609375 0q0 -10.3125 -0.015625 -11.046875q-0.0625 -2.1875 -0.890625 -3.203125q-0.8125 -1.015625 -2.734375 -1.015625q-2.015625 0 -3.359375 0.96875q-1.34375 0.96875 -1.75 2.515625q-0.15625 1.046875 -0.15625 2.40625l0 9.375l-2.640625 0zm23.96875 0.3125q-2.53125 0 -3.59375 -1.234375q-1.0625 -1.234375 -1.125 -3.984375l0 -10.296875l-2.546875 0l0.109375 -1.71875l2.421875 -0.21875l0.890625 -3.921875l1.71875 -0.0625l0 3.984375l4.765625 0l0 1.9375l-4.765625 0l0 9.828125q0 1.953125 0.59375 2.75q0.59375 0.796875 2.03125 0.796875q0.515625 0 2.234375 -0.25l0.109375 2.0625q-1.859375 0.328125 -2.84375 0.328125z" fill-rule="nonzero"></path><path fill="#000000" d="m201.82108 217.88667l0 -23.109375l2.71875 0l0 20.703125l10.171875 0l-0.09375 2.40625l-12.796875 0zm18.546875 -17.140625l0 17.140625l-2.625 0l0 -17.140625l2.625 0zm0 -6.234375l0 3.09375l-2.625 0l0 -3.09375l2.625 0zm11.421875 1.25q-1.625 0 -2.234375 0.9375q-0.59375 0.9375 -0.59375 3.25l0 0.796875l4.125 0l0 1.9375l-4.125 0l0 15.203125l-2.609375 0l0 -15.203125l-2.78125 0l0.21875 -1.71875l2.5625 -0.21875l0 -0.765625q0.03125 -3.3125 1.234375 -4.796875q1.21875 -1.5 3.921875 -1.5q1.046875 0 2.5625 0.234375l-0.171875 2.046875q-1.390625 -0.203125 -2.109375 -0.203125zm13.8125 8.15625q-1.140625 -1.375 -3.140625 -1.375q-2.0 0 -3.265625 1.421875q-1.265625 1.40625 -1.484375 3.859375l9.046875 0q0 -2.546875 -1.15625 -3.90625zm-2.625 14.328125q-3.734375 0 -5.890625 -2.375q-2.140625 -2.375 -2.140625 -6.5q0 -3.984375 2.078125 -6.453125q2.078125 -2.484375 5.46875 -2.53125q3.1875 0 5.046875 2.1875q1.875 2.171875 1.875 5.8125q0 0.1875 -0.015625 0.6875q0 0.5 0 0.71875l-11.765625 0q0.046875 2.921875 1.5 4.5625q1.46875 1.625 3.9375 1.625q2.71875 0 5.453125 -1.4375l0.40625 2.109375q-2.609375 1.59375 -5.953125 1.59375zm17.3125 0q-3.78125 0 -5.921875 -2.453125q-2.125 -2.453125 -2.125 -6.421875q0.015625 -4.0 2.171875 -6.484375q2.171875 -2.5 5.9375 -2.5q1.328125 0 2.5625 0.328125q1.25 0.328125 1.96875 0.859375l-0.71875 2.03125q-1.828125 -0.984375 -3.859375 -0.984375q-2.484375 0 -3.9375 1.8125q-1.4375 1.8125 -1.4375 4.953125q0 3.0625 1.421875 4.859375q1.4375 1.78125 3.96875 1.78125q2.015625 0 4.125 -1.09375l0.328125 2.078125q-1.703125 1.234375 -4.484375 1.234375zm5.6875 -17.5l2.765625 0l5.40625 14.265625l4.8125 -14.265625l2.765625 0q-6.9375 19.09375 -7.171875 19.6875q-1.078125 2.703125 -2.609375 3.953125q-1.53125 1.265625 -4.03125 1.265625q-0.75 0 -1.578125 -0.125l-0.15625 -2.21875q0.875 0.0625 1.3125 0.0625q1.765625 0 2.671875 -0.65625q0.921875 -0.640625 1.640625 -2.421875q0.640625 -1.640625 0.953125 -2.53125l-6.78125 -17.015625zm25.40625 17.5q-3.78125 0 -5.921875 -2.453125q-2.125 -2.453125 -2.125 -6.421875q0.015625 -4.0 2.171875 -6.484375q2.171875 -2.5 5.9375 -2.5q1.328125 0 2.5625 0.328125q1.25 0.328125 1.96875 0.859375l-0.71875 2.03125q-1.828125 -0.984375 -3.859375 -0.984375q-2.484375 0 -3.9375 1.8125q-1.4375 1.8125 -1.4375 4.953125q0 3.0625 1.421875 4.859375q1.4375 1.78125 3.96875 1.78125q2.015625 0 4.125 -1.09375l0.328125 2.078125q-1.703125 1.234375 -4.484375 1.234375zm12.484375 -0.046875q-2.5 0 -3.546875 -1.34375q-1.03125 -1.34375 -1.03125 -4.671875l0 -18.09375l2.59375 -0.15625l0 17.21875q0 1.0625 0.015625 1.703125q0.03125 0.640625 0.125 1.265625q0.09375 0.609375 0.25 0.921875q0.15625 0.3125 0.453125 0.578125q0.296875 0.25 0.703125 0.34375q0.421875 0.078125 1.03125 0.078125q0.5 0 1.96875 -0.1875l0.140625 2.078125q-1.609375 0.265625 -2.703125 0.265625zm14.15625 -14.28125q-1.140625 -1.375 -3.140625 -1.375q-2.0 0 -3.265625 1.421875q-1.265625 1.40625 -1.484375 3.859375l9.046875 0q0 -2.546875 -1.15625 -3.90625zm-2.625 14.328125q-3.734375 0 -5.890625 -2.375q-2.140625 -2.375 -2.140625 -6.5q0 -3.984375 2.078125 -6.453125q2.078125 -2.484375 5.46875 -2.53125q3.1875 0 5.046875 2.1875q1.875 2.171875 1.875 5.8125q0 0.1875 -0.015625 0.6875q0 0.5 0 0.71875l-11.765625 0q0.046875 2.921875 1.5 4.5625q1.46875 1.625 3.9375 1.625q2.71875 0 5.453125 -1.4375l0.40625 2.109375q-2.609375 1.59375 -5.953125 1.59375z" fill-rule="nonzero"></path></g></svg>

