<?xml version="1.0" standalone="yes"?>

<svg version="1.1" viewBox="0.0 0.0 788.5538057742782 239.68503937007873" fill="none" stroke="none" stroke-linecap="square" stroke-miterlimit="10" xmlns="http://www.w3.org/2000/svg" xmlns:xlink="http://www.w3.org/1999/xlink"><clipPath id="p.0"><path d="m0 0l788.55383 0l0 239.68504l-788.55383 0l0 -239.68504z" clip-rule="nonzero"></path></clipPath><g clip-path="url(#p.0)"><path fill="#000000" fill-opacity="0.0" d="m0 0l788.55383 0l0 239.68504l-788.55383 0z" fill-rule="nonzero"></path><path fill="#ead1dc" d="m12.572179 101.07218l79.41732 0l0 -7.5669327l15.133858 15.133858l-15.133858 15.133858l0 -7.566925l-79.41732 0z" fill-rule="nonzero"></path><path stroke="#741b47" stroke-width="1.0" stroke-linejoin="round" stroke-linecap="butt" stroke-dasharray="1.0,3.0" d="m12.572179 101.07218l79.41732 0l0 -7.5669327l15.133858 15.133858l-15.133858 15.133858l0 -7.566925l-79.41732 0z" fill-rule="nonzero"></path><path fill="#d9ead3" d="m679.3228 68.98684l41.543335 0l0 83.11811l-41.543335 0z" fill-rule="nonzero"></path><path stroke="#274e13" stroke-width="1.0" stroke-linejoin="round" stroke-linecap="butt" d="m679.3228 68.98684l41.543335 0l0 83.11811l-41.543335 0z" fill-rule="nonzero"></path><path fill="#fff2cc" d="m315.01575 186.64436l59.40158 0l0 30.267715l-59.40158 0z" fill-rule="nonzero"></path><path stroke="#7f6000" stroke-width="1.0" stroke-linejoin="round" stroke-linecap="butt" d="m315.01575 186.64436l59.40158 0l0 30.267715l-59.40158 0z" fill-rule="nonzero"></path><path fill="#000000" fill-opacity="0.0" d="m380.88715 178.40814l177.66931 0l0 46.740158l-177.66931 0z" fill-rule="nonzero"></path><path fill="#000000" d="m395.6684 204.00002q0.78125 0 1.46875 -0.28125q0.703125 -0.28125 1.21875 -0.765625q0.53125 -0.484375 0.921875 -1.09375q0.390625 -0.609375 0.65625 -1.3125l0.28125 -0.75q0.28125 -0.75 0.34375 -1.375q0.0625 -0.625 -0.09375 -1.125q-0.15625 -0.5 -0.640625 -0.765625q-0.46875 -0.28125 -1.25 -0.28125q-0.640625 0 -1.265625 0.25q-0.609375 0.234375 -1.09375 0.625q-0.46875 0.390625 -0.90625 0.921875q-0.4375 0.515625 -0.734375 1.0625q-0.296875 0.53125 -0.515625 1.078125q-0.1875 0.53125 -0.28125 1.0625q-0.09375 0.53125 -0.046875 1.03125q0.0625 0.5 0.265625 0.875q0.203125 0.375 0.625 0.609375q0.4375 0.234375 1.046875 0.234375zm-4.640625 5.984375l0.390625 -1.40625l1.890625 0q0.796875 0 1.421875 -0.109375q0.625 -0.109375 1.109375 -0.359375q0.484375 -0.25 0.84375 -0.5625q0.359375 -0.3125 0.671875 -0.8125q0.3125 -0.5 0.53125 -0.984375q0.234375 -0.484375 0.484375 -1.1875l0.34375 -0.90625q-0.859375 0.796875 -1.765625 1.234375q-0.890625 0.421875 -2.015625 0.421875q-0.875 0 -1.5 -0.296875q-0.609375 -0.296875 -0.9375 -0.796875q-0.3125 -0.5 -0.421875 -1.15625q-0.109375 -0.671875 -0.015625 -1.375q0.109375 -0.703125 0.390625 -1.421875q0.40625 -1.109375 1.03125 -2.046875q0.640625 -0.953125 1.4375 -1.6875q0.8125 -0.75 1.84375 -1.171875q1.046875 -0.421875 2.171875 -0.421875q1.0 0 1.609375 0.390625q0.609375 0.375 0.90625 1.171875l0.5 -1.34375l1.515625 0l-3.53125 9.4375q-0.25 0.65625 -0.46875 1.140625q-0.21875 0.484375 -0.578125 1.078125q-0.34375 0.59375 -0.71875 1.015625q-0.375 0.4375 -0.921875 0.859375q-0.53125 0.4375 -1.171875 0.703125q-0.625 0.265625 -1.484375 0.421875q-0.84375 0.171875 -1.84375 0.171875l-1.71875 0zm19.984833 -12.953125q-0.375 -0.8125 -1.5625 -0.8125q-1.1875 0 -2.25 0.84375q-1.0625 0.828125 -1.765625 2.296875l5.375 0q0.578125 -1.515625 0.203125 -2.328125zm-4.765625 8.515625q-2.203125 0 -2.953125 -1.40625q-0.75 -1.421875 0.171875 -3.875q0.875 -2.359375 2.65625 -3.828125q1.796875 -1.46875 3.8125 -1.5q1.890625 0 2.515625 1.296875q0.625 1.296875 -0.1875 3.453125q-0.03125 0.109375 -0.15625 0.40625q-0.109375 0.296875 -0.15625 0.421875l-6.984375 0q-0.625 1.734375 -0.125 2.71875q0.5 0.96875 1.96875 0.96875q1.609375 0 3.5625 -0.859375l-0.21875 1.25q-1.921875 0.953125 -3.90625 0.953125zm5.8745728 -0.21875l3.8125 -10.171875l1.296875 0l-0.34375 1.453125q0.875 -0.75 1.953125 -1.203125q1.078125 -0.46875 2.125 -0.46875q1.765625 0 2.234375 0.984375q0.484375 0.984375 -0.28125 3.046875l-2.390625 6.359375l-1.546875 0q2.296875 -6.125 2.453125 -6.5625q0.453125 -1.296875 0.1875 -1.890625q-0.265625 -0.609375 -1.40625 -0.609375q-1.1875 0 -2.203125 0.578125q-1.015625 0.578125 -1.609375 1.484375q-0.328125 0.625 -0.625 1.4375l-2.09375 5.5625l-1.5625 0zm19.77002 -8.296875q-0.375 -0.8125 -1.5625 -0.8125q-1.1875 0 -2.25 0.84375q-1.0625 0.828125 -1.765625 2.296875l5.375 0q0.578125 -1.515625 0.203125 -2.328125zm-4.765625 8.515625q-2.203125 0 -2.953125 -1.40625q-0.75 -1.421875 0.171875 -3.875q0.875 -2.359375 2.65625 -3.828125q1.796875 -1.46875 3.8125 -1.5q1.890625 0 2.515625 1.296875q0.625 1.296875 -0.1875 3.453125q-0.03125 0.109375 -0.15625 0.40625q-0.109375 0.296875 -0.15625 0.421875l-6.984375 0q-0.625 1.734375 -0.125 2.71875q0.5 0.96875 1.96875 0.96875q1.609375 0 3.5625 -0.859375l-0.21875 1.25q-1.921875 0.953125 -3.90625 0.953125zm14.280823 -10.484375q0.421875 0 0.75 0.046875l-0.59375 1.4375q-0.390625 -0.078125 -0.703125 -0.078125q-1.296875 0 -2.453125 0.90625q-1.15625 0.90625 -1.65625 2.234375l-2.140625 5.71875l-1.5625 0q3.515625 -9.375 3.8125 -10.171875l1.28125 0l-0.53125 1.828125q0.859375 -0.875 1.859375 -1.390625q1.015625 -0.53125 1.9375 -0.53125zm1.7175598 9.21875q1.109375 0 2.171875 -0.59375q1.0625 -0.609375 1.703125 -1.640625l0.640625 -1.71875q-0.046875 0 -0.578125 0.046875q-0.53125 0.046875 -0.6875 0.046875q-2.09375 0.1875 -3.078125 0.671875q-0.96875 0.484375 -1.359375 1.546875q-0.3125 0.8125 0.015625 1.234375q0.328125 0.40625 1.171875 0.40625zm2.984375 1.046875q0.078125 -0.59375 0.203125 -1.28125q-1.15625 0.84375 -2.03125 1.171875q-0.859375 0.328125 -1.859375 0.328125q-1.421875 0 -2.015625 -0.75q-0.578125 -0.75 -0.046875 -2.15625q0.578125 -1.546875 2.03125 -2.296875q1.46875 -0.765625 3.765625 -0.9375q0.3125 -0.03125 0.953125 -0.078125q0.640625 -0.0625 0.953125 -0.09375l0.34375 -0.890625q0.40625 -1.078125 0.09375 -1.59375q-0.3125 -0.515625 -1.390625 -0.515625q-1.5 0 -3.296875 0.734375q-0.015625 -0.109375 -0.015625 -0.640625q0.015625 -0.53125 0.015625 -0.5625q0.828125 -0.375 1.828125 -0.59375q1.015625 -0.234375 1.984375 -0.234375q1.890625 0 2.421875 0.828125q0.546875 0.828125 -0.203125 2.828125l-2.53125 6.734375l-1.203125 0zm6.861603 0.1875q-1.5 0 -1.859375 -0.734375q-0.34375 -0.734375 0.21875 -2.359375l2.296875 -6.125l-1.5 0l0.4375 -1.015625l1.484375 -0.125l1.40625 -2.328125l1.03125 -0.046875l-0.890625 2.375l2.828125 0l-0.421875 1.140625l-2.828125 0l-2.1875 5.84375q-0.4375 1.15625 -0.265625 1.640625q0.171875 0.46875 1.03125 0.46875q0.296875 0 1.390625 -0.15625l-0.40625 1.21875q-1.1875 0.203125 -1.765625 0.203125zm12.280243 -8.484375q-0.375 -0.8125 -1.5625 -0.8125q-1.1875 0 -2.25 0.84375q-1.0625 0.828125 -1.765625 2.296875l5.375 0q0.578125 -1.515625 0.203125 -2.328125zm-4.765625 8.515625q-2.203125 0 -2.953125 -1.40625q-0.75 -1.421875 0.171875 -3.875q0.875 -2.359375 2.65625 -3.828125q1.796875 -1.46875 3.8125 -1.5q1.890625 0 2.515625 1.296875q0.625 1.296875 -0.1875 3.453125q-0.03125 0.109375 -0.15625 0.40625q-0.109375 0.296875 -0.15625 0.421875l-6.984375 0q-0.625 1.734375 -0.125 2.71875q0.5 0.96875 1.96875 0.96875q1.609375 0 3.5625 -0.859375l-0.21875 1.25q-1.921875 0.953125 -3.90625 0.953125zm10.265198 -1.34375q1.53125 0 2.640625 -0.984375q1.125 -0.984375 1.8125 -2.8125q0.78125 -2.0625 0.453125 -3.09375q-0.328125 -1.046875 -1.9375 -1.046875q-0.71875 0 -1.390625 0.3125q-0.65625 0.296875 -1.203125 0.84375q-0.53125 0.546875 -0.96875 1.265625q-0.4375 0.703125 -0.765625 1.546875q-0.4375 1.1875 -0.46875 2.0625q-0.03125 0.875 0.421875 1.390625q0.453125 0.515625 1.40625 0.515625zm3.171875 -0.34375q-0.78125 0.765625 -1.796875 1.21875q-1.0 0.453125 -2.015625 0.453125q-2.015625 0 -2.625 -1.421875q-0.59375 -1.4375 0.328125 -3.90625q0.890625 -2.359375 2.578125 -3.8125q1.703125 -1.453125 3.65625 -1.453125q1.0 0 1.734375 0.4375q0.734375 0.4375 0.90625 1.1875l0.3125 -0.890625l1.671875 -4.46875l1.5625 -0.09375l-5.328125 14.21875l-1.328125 0l0.34375 -1.46875zm12.342804 1.6875q-2.234375 0 -2.953125 -1.453125q-0.71875 -1.46875 0.171875 -3.828125q0.890625 -2.375 2.71875 -3.84375q1.84375 -1.484375 4.078125 -1.484375q0.78125 0 1.453125 0.203125q0.671875 0.1875 0.984375 0.5l-0.875 1.203125q-0.875 -0.578125 -2.078125 -0.578125q-1.46875 0 -2.734375 1.078125q-1.265625 1.078125 -1.96875 2.9375q-0.671875 1.8125 -0.234375 2.875q0.453125 1.0625 1.96875 1.0625q1.1875 0 2.671875 -0.640625l-0.265625 1.234375q-1.28125 0.734375 -2.9375 0.734375zm7.630493 -5.28125q-0.6875 1.8125 -0.296875 2.90625q0.40625 1.078125 1.953125 1.078125q1.515625 0 2.6875 -1.078125q1.1875 -1.09375 1.875 -2.921875q0.703125 -1.875 0.328125 -2.9375q-0.359375 -1.078125 -1.921875 -1.078125q-1.53125 0 -2.734375 1.09375q-1.203125 1.09375 -1.890625 2.9375zm7.828125 -0.03125q-0.875 2.359375 -2.703125 3.84375q-1.8125 1.46875 -4.03125 1.46875q-2.140625 0 -2.859375 -1.484375q-0.703125 -1.484375 0.171875 -3.8125q0.890625 -2.375 2.703125 -3.84375q1.8125 -1.46875 4.03125 -1.46875q2.1875 0 2.875 1.46875q0.703125 1.46875 -0.1875 3.828125zm4.4717712 3.96875q1.53125 0 2.640625 -0.984375q1.125 -0.984375 1.8125 -2.8125q0.78125 -2.0625 0.453125 -3.09375q-0.328125 -1.046875 -1.9375 -1.046875q-0.71875 0 -1.390625 0.3125q-0.65625 0.296875 -1.203125 0.84375q-0.53125 0.546875 -0.96875 1.265625q-0.4375 0.703125 -0.765625 1.546875q-0.4375 1.1875 -0.46875 2.0625q-0.03125 0.875 0.421875 1.390625q0.453125 0.515625 1.40625 0.515625zm3.171875 -0.34375q-0.78125 0.765625 -1.796875 1.21875q-1.0 0.453125 -2.015625 0.453125q-2.015625 0 -2.625 -1.421875q-0.59375 -1.4375 0.328125 -3.90625q0.890625 -2.359375 2.578125 -3.8125q1.703125 -1.453125 3.65625 -1.453125q1.0 0 1.734375 0.4375q0.734375 0.4375 0.90625 1.1875l0.3125 -0.890625l1.671875 -4.46875l1.5625 -0.09375l-5.328125 14.21875l-1.328125 0l0.34375 -1.46875zm12.453491 -6.828125q-0.375 -0.8125 -1.5625 -0.8125q-1.1875 0 -2.25 0.84375q-1.0625 0.828125 -1.765625 2.296875l5.375 0q0.578125 -1.515625 0.203125 -2.328125zm-4.765625 8.515625q-2.203125 0 -2.953125 -1.40625q-0.75 -1.421875 0.171875 -3.875q0.875 -2.359375 2.65625 -3.828125q1.796875 -1.46875 3.8125 -1.5q1.890625 0 2.515625 1.296875q0.625 1.296875 -0.1875 3.453125q-0.03125 0.109375 -0.15625 0.40625q-0.109375 0.296875 -0.15625 0.421875l-6.984375 0q-0.625 1.734375 -0.125 2.71875q0.5 0.96875 1.96875 0.96875q1.609375 0 3.5625 -0.859375l-0.21875 1.25q-1.921875 0.953125 -3.90625 0.953125z" fill-rule="nonzero"></path><path fill="#d9ead3" d="m565.32544 186.64436l59.40161 0l0 30.267715l-59.40161 0z" fill-rule="nonzero"></path><path stroke="#274e13" stroke-width="1.0" stroke-linejoin="round" stroke-linecap="butt" d="m565.32544 186.64436l59.40161 0l0 30.267715l-59.40161 0z" fill-rule="nonzero"></path><path fill="#cfe2f3" d="m122.59843 68.98684l41.543312 0l0 83.11811l-41.543312 0z" fill-rule="nonzero"></path><path stroke="#0b5394" stroke-width="1.0" stroke-linejoin="round" stroke-linecap="butt" d="m122.59843 68.98684l41.543312 0l0 83.11811l-41.543312 0z" fill-rule="nonzero"></path><path fill="#000000" fill-opacity="0.0" d="m46.787403 15.182415l193.16536 0l0 46.740158l-193.16536 0z" fill-rule="nonzero"></path><path fill="#000000" d="m68.49005 42.102413l0 -13.953125l2.4375 -0.15625l0 2.9375q0 0.21875 -0.03125 1.1875q-0.03125 0.96875 -0.03125 0.984375q1.21875 -1.453125 3.265625 -1.453125q1.703125 0 2.640625 0.984375q0.953125 0.984375 0.953125 3.015625l0 6.453125l-2.4375 0l0 -6.1875q0 -1.25 -0.40625 -1.828125q-0.390625 -0.59375 -1.34375 -0.59375q-0.8125 0 -1.453125 0.421875q-0.625 0.40625 -0.9375 1.046875q-0.21875 0.859375 -0.21875 2.234375l0 4.90625l-2.4375 0zm15.492325 0.140625q-1.046875 0 -1.734375 -0.25q-0.6875 -0.25 -1.078125 -0.765625q-0.390625 -0.53125 -0.5625 -1.25q-0.15625 -0.71875 -0.15625 -1.78125l0 -4.8125l-1.671875 0l0.09375 -1.3125l1.75 -0.171875l0.78125 -2.75l1.484375 -0.015625l0 2.765625l2.53125 0l0 1.484375l-2.53125 0l0 4.859375q0 1.15625 0.328125 1.65625q0.328125 0.484375 1.234375 0.484375q0.53125 0 1.125 -0.09375l0.078125 1.75q-0.03125 0 -0.234375 0.046875q-0.203125 0.03125 -0.40625 0.0625q-0.1875 0.03125 -0.484375 0.0625q-0.296875 0.03125 -0.546875 0.03125zm7.314926 0q-1.046875 0 -1.734375 -0.25q-0.6875 -0.25 -1.078125 -0.765625q-0.390625 -0.53125 -0.5625 -1.25q-0.15625 -0.71875 -0.15625 -1.78125l0 -4.8125l-1.671875 0l0.09375 -1.3125l1.75 -0.171875l0.78125 -2.75l1.484375 -0.015625l0 2.765625l2.53125 0l0 1.484375l-2.53125 0l0 4.859375q0 1.15625 0.328125 1.65625q0.328125 0.484375 1.234375 0.484375q0.53125 0 1.125 -0.09375l0.078125 1.75q-0.03125 0 -0.234375 0.046875q-0.203125 0.03125 -0.40625 0.0625q-0.1875 0.03125 -0.484375 0.0625q-0.296875 0.03125 -0.546875 0.03125zm3.2368011 4.09375l0 -14.4375l2.09375 0l0.25 1.4375q0.5 -0.8125 1.328125 -1.25q0.84375 -0.4375 1.859375 -0.4375q1.25 0 2.203125 0.703125q0.953125 0.6875 1.4375 1.890625q0.5 1.203125 0.5 2.703125q0 2.375 -1.15625 3.859375q-1.140625 1.484375 -3.09375 1.484375q-0.96875 0 -1.75 -0.375q-0.78125 -0.390625 -1.3125 -1.046875q0.078125 1.34375 0.078125 1.5l0 3.859375l-2.4375 0.109375zm4.890625 -5.890625q1.09375 0 1.71875 -0.90625q0.625 -0.921875 0.625 -2.609375q0 -1.71875 -0.640625 -2.578125q-0.625 -0.859375 -1.734375 -0.859375q-2.421875 0 -2.453125 3.28125q0 1.890625 0.625 2.78125q0.640625 0.890625 1.859375 0.890625zm7.5821533 1.828125q-0.59375 0 -1.015625 -0.421875q-0.421875 -0.421875 -0.421875 -1.0q0 -0.578125 0.40625 -1.0q0.421875 -0.4375 1.03125 -0.4375q0.59375 0 1.0 0.4375q0.421875 0.421875 0.421875 1.0q0 0.578125 -0.421875 1.0q-0.40625 0.421875 -1.0 0.421875zm7.324417 0.015625q-2.453125 0 -4.40625 -1.140625l0.609375 -1.984375q0.875 0.484375 1.890625 0.78125q1.03125 0.296875 2.0 0.296875q1.203125 0 1.8125 -0.515625q0.609375 -0.515625 0.609375 -1.484375q0 -1.28125 -1.703125 -1.765625q-0.125 -0.046875 -0.6875 -0.203125q-0.546875 -0.171875 -1.03125 -0.3125q-0.484375 -0.15625 -0.703125 -0.25q-2.734375 -0.953125 -2.734375 -3.59375q0 -1.84375 1.3125 -2.84375q1.3125 -1.0 3.484375 -1.0q2.453125 0 4.234375 1.0l-0.75 1.84375q-1.828125 -0.8125 -3.390625 -0.8125q-1.109375 0 -1.6875 0.390625q-0.5625 0.390625 -0.609375 1.3125q0 1.125 1.125 1.46875q0.21875 0.09375 1.09375 0.375q0.875 0.265625 1.140625 0.359375q1.859375 0.609375 2.65625 1.515625q0.8125 0.90625 0.8125 2.53125q0 1.9375 -1.375 2.984375q-1.375 1.046875 -3.703125 1.046875zm11.503067 0q-2.46875 0 -3.84375 -1.40625q-1.359375 -1.421875 -1.359375 -3.90625q0 -2.4375 1.28125 -3.875q1.296875 -1.4375 3.53125 -1.453125q2.09375 0 3.25 1.328125q1.171875 1.3125 1.171875 3.5q0 0.15625 0 0.515625q0 0.34375 0 0.5l-6.78125 0q0.03125 1.4375 0.78125 2.21875q0.75 0.78125 2.0625 0.78125q1.65625 0 3.203125 -0.875l0.34375 1.734375q-1.53125 0.9375 -3.640625 0.9375zm-2.703125 -6.3125l4.453125 0q0 -1.25 -0.578125 -1.921875q-0.5625 -0.671875 -1.5625 -0.671875q-0.9375 0 -1.578125 0.65625q-0.640625 0.65625 -0.734375 1.9375zm8.539688 6.125l0 -10.203125l2.03125 0l0.3125 1.5625q1.015625 -1.609375 2.90625 -1.609375q0.40625 0 0.65625 0.046875l-0.046875 2.03125q-0.359375 -0.0625 -0.765625 -0.0625q-1.34375 0 -2.015625 0.71875q-0.65625 0.71875 -0.65625 1.984375l0 5.53125l-2.421875 0zm10.113129 0l-4.0625 -10.203125l2.578125 0q0.140625 0.421875 0.9375 2.609375q0.796875 2.171875 1.0625 2.953125q0.515625 1.546875 0.75 2.328125q0 0 0.15625 -0.59375q0.15625 -0.59375 0.296875 -1.125q0.15625 -0.53125 0.1875 -0.640625q0.015625 -0.015625 0.84375 -2.546875q0.84375 -2.546875 1.0 -2.984375l2.5625 0l-3.859375 10.203125l-2.453125 0zm12.107559 0.1875q-2.46875 0 -3.84375 -1.40625q-1.359375 -1.421875 -1.359375 -3.90625q0 -2.4375 1.28125 -3.875q1.296875 -1.4375 3.53125 -1.453125q2.09375 0 3.25 1.328125q1.171875 1.3125 1.171875 3.5q0 0.15625 0 0.515625q0 0.34375 0 0.5l-6.78125 0q0.03125 1.4375 0.78125 2.21875q0.75 0.78125 2.0625 0.78125q1.65625 0 3.203125 -0.875l0.34375 1.734375q-1.53125 0.9375 -3.640625 0.9375zm-2.703125 -6.3125l4.453125 0q0 -1.25 -0.578125 -1.921875q-0.5625 -0.671875 -1.5625 -0.671875q-0.9375 0 -1.578125 0.65625q-0.640625 0.65625 -0.734375 1.9375zm8.539688 6.125l0 -10.203125l2.03125 0l0.3125 1.5625q1.015625 -1.609375 2.90625 -1.609375q0.40625 0 0.65625 0.046875l-0.046875 2.03125q-0.359375 -0.0625 -0.765625 -0.0625q-1.34375 0 -2.015625 0.71875q-0.65625 0.71875 -0.65625 1.984375l0 5.53125l-2.421875 0zm8.285004 0.171875q-0.59375 0 -1.015625 -0.421875q-0.421875 -0.421875 -0.421875 -1.0q0 -0.578125 0.40625 -1.0q0.421875 -0.4375 1.03125 -0.4375q0.59375 0 1.0 0.4375q0.421875 0.421875 0.421875 1.0q0 0.578125 -0.421875 1.0q-0.40625 0.421875 -1.0 0.421875zm7.324417 0.015625q-2.453125 0 -4.40625 -1.140625l0.609375 -1.984375q0.875 0.484375 1.890625 0.78125q1.03125 0.296875 2.0 0.296875q1.203125 0 1.8125 -0.515625q0.609375 -0.515625 0.609375 -1.484375q0 -1.28125 -1.703125 -1.765625q-0.125 -0.046875 -0.6875 -0.203125q-0.546875 -0.171875 -1.03125 -0.3125q-0.484375 -0.15625 -0.703125 -0.25q-2.734375 -0.953125 -2.734375 -3.59375q0 -1.84375 1.3125 -2.84375q1.3125 -1.0 3.484375 -1.0q2.453125 0 4.234375 1.0l-0.75 1.84375q-1.828125 -0.8125 -3.390625 -0.8125q-1.109375 0 -1.6875 0.390625q-0.5625 0.390625 -0.609375 1.3125q0 1.125 1.125 1.46875q0.21875 0.09375 1.09375 0.375q0.875 0.265625 1.140625 0.359375q1.859375 0.609375 2.65625 1.515625q0.8125 0.90625 0.8125 2.53125q0 1.9375 -1.375 2.984375q-1.375 1.046875 -3.703125 1.046875zm11.503067 0q-2.46875 0 -3.84375 -1.40625q-1.359375 -1.421875 -1.359375 -3.90625q0 -2.4375 1.28125 -3.875q1.296875 -1.4375 3.53125 -1.453125q2.09375 0 3.25 1.328125q1.171875 1.3125 1.171875 3.5q0 0.15625 0 0.515625q0 0.34375 0 0.5l-6.78125 0q0.03125 1.4375 0.78125 2.21875q0.75 0.78125 2.0625 0.78125q1.65625 0 3.203125 -0.875l0.34375 1.734375q-1.53125 0.9375 -3.640625 0.9375zm-2.703125 -6.3125l4.453125 0q0 -1.25 -0.578125 -1.921875q-0.5625 -0.671875 -1.5625 -0.671875q-0.9375 0 -1.578125 0.65625q-0.640625 0.65625 -0.734375 1.9375zm8.539688 6.125l0 -10.203125l2.03125 0l0.3125 1.5625q1.015625 -1.609375 2.90625 -1.609375q0.40625 0 0.65625 0.046875l-0.046875 2.03125q-0.359375 -0.0625 -0.765625 -0.0625q-1.34375 0 -2.015625 0.71875q-0.65625 0.71875 -0.65625 1.984375l0 5.53125l-2.421875 0zm10.113129 0l-4.0625 -10.203125l2.578125 0q0.140625 0.421875 0.9375 2.609375q0.796875 2.171875 1.0625 2.953125q0.515625 1.546875 0.75 2.328125q0 0 0.15625 -0.59375q0.15625 -0.59375 0.296875 -1.125q0.15625 -0.53125 0.1875 -0.640625q0.015625 -0.015625 0.84375 -2.546875q0.84375 -2.546875 1.0 -2.984375l2.5625 0l-3.859375 10.203125l-2.453125 0zm12.107559 0.1875q-2.46875 0 -3.84375 -1.40625q-1.359375 -1.421875 -1.359375 -3.90625q0 -2.4375 1.28125 -3.875q1.296875 -1.4375 3.53125 -1.453125q2.09375 0 3.25 1.328125q1.171875 1.3125 1.171875 3.5q0 0.15625 0 0.515625q0 0.34375 0 0.5l-6.78125 0q0.03125 1.4375 0.78125 2.21875q0.75 0.78125 2.0625 0.78125q1.65625 0 3.203125 -0.875l0.34375 1.734375q-1.53125 0.9375 -3.640625 0.9375zm-2.703125 -6.3125l4.453125 0q0 -1.25 -0.578125 -1.921875q-0.5625 -0.671875 -1.5625 -0.671875q-0.9375 0 -1.578125 0.65625q-0.640625 0.65625 -0.734375 1.9375z" fill-rule="nonzero"></path><path fill="#cfe2f3" d="m180.8819 101.073494l79.41733 0l0 -7.5669327l15.13385 15.133858l-15.13385 15.133858l0 -7.566925l-79.41733 0z" fill-rule="nonzero"></path><path stroke="#000000" stroke-width="1.0" stroke-linejoin="round" stroke-linecap="butt" d="m180.8819 101.073494l79.41733 0l0 -7.5669327l15.13385 15.133858l-15.13385 15.133858l0 -7.566925l-79.41733 0z" fill-rule="nonzero"></path><path fill="#cfe2f3" d="m292.17322 68.98684l41.543304 0l0 83.11811l-41.543304 0z" fill-rule="nonzero"></path><path stroke="#0b5394" stroke-width="1.0" stroke-linejoin="round" stroke-linecap="butt" d="m292.17322 68.98684l41.543304 0l0 83.11811l-41.543304 0z" fill-rule="nonzero"></path><path fill="#000000" fill-opacity="0.0" d="m212.94489 15.182415l200.0 0l0 46.740158l-200.0 0z" fill-rule="nonzero"></path><path fill="#000000" d="m234.19331 42.102413l0 -13.953125l2.4375 -0.15625l0 2.9375q0 0.21875 -0.03125 1.1875q-0.03125 0.96875 -0.03125 0.984375q1.21875 -1.453125 3.265625 -1.453125q1.703125 0 2.640625 0.984375q0.953125 0.984375 0.953125 3.015625l0 6.453125l-2.4375 0l0 -6.1875q0 -1.25 -0.40625 -1.828125q-0.390625 -0.59375 -1.34375 -0.59375q-0.8125 0 -1.453125 0.421875q-0.625 0.40625 -0.9375 1.046875q-0.21875 0.859375 -0.21875 2.234375l0 4.90625l-2.4375 0zm15.492325 0.140625q-1.046875 0 -1.734375 -0.25q-0.6875 -0.25 -1.078125 -0.765625q-0.390625 -0.53125 -0.5625 -1.25q-0.15625 -0.71875 -0.15625 -1.78125l0 -4.8125l-1.671875 0l0.09375 -1.3125l1.75 -0.171875l0.78125 -2.75l1.484375 -0.015625l0 2.765625l2.53125 0l0 1.484375l-2.53125 0l0 4.859375q0 1.15625 0.328125 1.65625q0.328125 0.484375 1.234375 0.484375q0.53125 0 1.125 -0.09375l0.078125 1.75q-0.03125 0 -0.234375 0.046875q-0.203125 0.03125 -0.40625 0.0625q-0.1875 0.03125 -0.484375 0.0625q-0.296875 0.03125 -0.546875 0.03125zm7.3149414 0q-1.0468903 0 -1.7343903 -0.25q-0.6875 -0.25 -1.078125 -0.765625q-0.390625 -0.53125 -0.5625 -1.25q-0.15625 -0.71875 -0.15625 -1.78125l0 -4.8125l-1.671875 0l0.09375 -1.3125l1.75 -0.171875l0.78125 -2.75l1.484375 -0.015625l0 2.765625l2.5312653 0l0 1.484375l-2.5312653 0l0 4.859375q0 1.15625 0.32814026 1.65625q0.328125 0.484375 1.234375 0.484375q0.53125 0 1.125 -0.09375l0.078125 1.75q-0.03125 0 -0.234375 0.046875q-0.203125 0.03125 -0.40625 0.0625q-0.1875 0.03125 -0.484375 0.0625q-0.296875 0.03125 -0.546875 0.03125zm3.236786 4.09375l0 -14.4375l2.09375 0l0.25 1.4375q0.5 -0.8125 1.328125 -1.25q0.84375 -0.4375 1.859375 -0.4375q1.25 0 2.203125 0.703125q0.953125 0.6875 1.4375 1.890625q0.5 1.203125 0.5 2.703125q0 2.375 -1.15625 3.859375q-1.140625 1.484375 -3.09375 1.484375q-0.96875 0 -1.75 -0.375q-0.78125 -0.390625 -1.3125 -1.046875q0.078125 1.34375 0.078125 1.5l0 3.859375l-2.4375 0.109375zm4.890625 -5.890625q1.09375 0 1.71875 -0.90625q0.625 -0.921875 0.625 -2.609375q0 -1.71875 -0.640625 -2.578125q-0.625 -0.859375 -1.734375 -0.859375q-2.421875 0 -2.453125 3.28125q0 1.890625 0.625 2.78125q0.640625 0.890625 1.859375 0.890625zm6.5665283 1.65625l0 -10.203125l2.03125 0l0.3125 1.5625q1.015625 -1.609375 2.90625 -1.609375q0.40625 0 0.65625 0.046875l-0.046875 2.03125q-0.359375 -0.0625 -0.765625 -0.0625q-1.34375 0 -2.015625 0.71875q-0.65625 0.71875 -0.65625 1.984375l0 5.53125l-2.421875 0zm11.691254 -1.65625q1.234375 0 1.859375 -0.890625q0.625 -0.90625 0.625 -2.578125q0 -1.703125 -0.625 -2.59375q-0.625 -0.890625 -1.875 -0.890625q-1.234375 0 -1.859375 0.90625q-0.625 0.890625 -0.625 2.578125q0 1.671875 0.625 2.578125q0.640625 0.890625 1.875 0.890625zm-0.0625 1.84375q-2.265625 0 -3.5625 -1.453125q-1.296875 -1.46875 -1.296875 -3.859375q0 -2.46875 1.296875 -3.890625q1.296875 -1.4375 3.671875 -1.4375q2.28125 0 3.5625 1.453125q1.296875 1.453125 1.296875 3.875q0 2.4375 -1.3125 3.875q-1.296875 1.4375 -3.65625 1.4375zm14.11618 -0.984375q-1.21875 0.984375 -3.203125 0.984375q-1.984375 0 -3.203125 -0.984375q-1.203125 -1.0 -1.203125 -2.921875l0 -6.484375l2.4375 0l0 6.40625q0 1.140625 0.46875 1.65625q0.484375 0.5 1.53125 0.5q1.015625 0 1.484375 -0.5q0.46875 -0.515625 0.46875 -1.65625l0 -6.40625l2.4375 0l0 6.484375q0 1.921875 -1.21875 2.921875zm7.3131104 0.9375q-1.046875 0 -1.734375 -0.25q-0.6875 -0.25 -1.078125 -0.765625q-0.390625 -0.53125 -0.5625 -1.25q-0.15625 -0.71875 -0.15625 -1.78125l0 -4.8125l-1.671875 0l0.09375 -1.3125l1.75 -0.171875l0.78125 -2.75l1.484375 -0.015625l0 2.765625l2.53125 0l0 1.484375l-2.53125 0l0 4.859375q0 1.15625 0.328125 1.65625q0.328125 0.484375 1.234375 0.484375q0.53125 0 1.125 -0.09375l0.078125 1.75q-0.03125 0 -0.234375 0.046875q-0.203125 0.03125 -0.40625 0.0625q-0.1875 0.03125 -0.484375 0.0625q-0.296875 0.03125 -0.546875 0.03125zm7.955536 0.046875q-2.46875 0 -3.84375 -1.40625q-1.359375 -1.421875 -1.359375 -3.90625q0 -2.4375 1.28125 -3.875q1.296875 -1.4375 3.53125 -1.453125q2.09375 0 3.25 1.328125q1.171875 1.3125 1.171875 3.5q0 0.15625 0 0.515625q0 0.34375 0 0.5l-6.78125 0q0.03125 1.4375 0.78125 2.21875q0.75 0.78125 2.0625 0.78125q1.65625 0 3.203125 -0.875l0.34375 1.734375q-1.53125 0.9375 -3.640625 0.9375zm-2.703125 -6.3125l4.453125 0q0 -1.25 -0.578125 -1.921875q-0.5625 -0.671875 -1.5625 -0.671875q-0.9375 0 -1.578125 0.65625q-0.640625 0.65625 -0.734375 1.9375zm8.539703 6.125l0 -10.203125l2.03125 0l0.3125 1.5625q1.015625 -1.609375 2.90625 -1.609375q0.40625 0 0.65625 0.046875l-0.046875 2.03125q-0.359375 -0.0625 -0.765625 -0.0625q-1.34375 0 -2.015625 0.71875q-0.65625 0.71875 -0.65625 1.984375l0 5.53125l-2.421875 0zm8.285004 0.171875q-0.59375 0 -1.015625 -0.421875q-0.421875 -0.421875 -0.421875 -1.0q0 -0.578125 0.40625 -1.0q0.421875 -0.4375 1.03125 -0.4375q0.59375 0 1.0 0.4375q0.421875 0.421875 0.421875 1.0q0 0.578125 -0.421875 1.0q-0.40625 0.421875 -1.0 0.421875zm3.5119019 -0.171875l0 -13.59375l2.515625 0l0 5.5625l6.140625 0l0 -5.5625l2.515625 0l0 13.59375l-2.515625 0l0 -6.046875l-6.140625 0l0 6.046875l-2.515625 0zm16.29956 0.1875q-1.421875 0 -2.296875 -0.78125q-0.875 -0.78125 -0.875 -2.25q0 -1.59375 1.03125 -2.359375q1.046875 -0.765625 3.140625 -0.96875q0.296875 -0.03125 0.625 -0.0625q0.328125 -0.046875 0.75 -0.078125q0.421875 -0.046875 0.65625 -0.078125l0 -0.53125q0 -0.921875 -0.421875 -1.34375q-0.421875 -0.421875 -1.296875 -0.421875q-1.25 0 -3.078125 0.6875q0 -0.03125 -0.296875 -0.84375q-0.296875 -0.8125 -0.3125 -0.828125q1.796875 -0.78125 3.90625 -0.78125q2.046875 0 2.984375 0.90625q0.9375 0.890625 0.9375 2.890625l0 6.65625l-1.796875 0q0 -0.03125 -0.203125 -0.609375q-0.1875 -0.59375 -0.1875 -0.640625q-0.765625 0.75 -1.5 1.09375q-0.71875 0.34375 -1.765625 0.34375zm0.65625 -1.71875q0.84375 0 1.46875 -0.40625q0.640625 -0.40625 0.90625 -0.96875l0 -1.96875q-0.03125 0 -0.5 0.03125q-0.453125 0.03125 -0.484375 0.03125q-1.484375 0.140625 -2.171875 0.5625q-0.671875 0.421875 -0.671875 1.375q0 0.640625 0.375 1.0q0.375 0.34375 1.078125 0.34375zm7.0592957 1.53125l0 -10.203125l1.953125 0l0.265625 1.296875q1.5625 -1.546875 3.46875 -1.546875q1.78125 0 2.65625 1.03125q0.890625 1.03125 0.890625 2.96875l0 6.453125l-2.4375 0l0 -6.15625q0 -1.234375 -0.390625 -1.84375q-0.390625 -0.609375 -1.40625 -0.609375q-0.78125 0 -1.4375 0.40625q-0.65625 0.40625 -0.953125 1.015625q-0.171875 0.71875 -0.171875 2.21875l0 4.96875l-2.4375 0zm15.220184 0.1875q-2.0 0 -3.140625 -1.453125q-1.140625 -1.46875 -1.140625 -3.921875q0 -2.375 1.140625 -3.8125q1.140625 -1.453125 3.125 -1.453125q2.171875 0 3.078125 1.546875q-0.09375 -0.90625 -0.09375 -1.75l0 -3.296875l2.421875 -0.15625l0 14.109375l-2.09375 0l-0.28125 -1.390625q-0.15625 0.25 -0.296875 0.4375q-0.125 0.171875 -0.390625 0.40625q-0.25 0.234375 -0.5625 0.390625q-0.296875 0.140625 -0.765625 0.234375q-0.453125 0.109375 -1.0 0.109375zm0.578125 -1.84375q2.4375 0 2.484375 -3.328125q0 -1.875 -0.640625 -2.734375q-0.625 -0.875 -1.875 -0.875q-1.09375 0 -1.75 0.875q-0.65625 0.875 -0.65625 2.59375q0 1.6875 0.65625 2.578125q0.65625 0.890625 1.78125 0.890625zm10.671997 1.796875q-1.0625 0 -1.75 -0.25q-0.6875 -0.25 -1.09375 -0.78125q-0.390625 -0.53125 -0.546875 -1.265625q-0.15625 -0.75 -0.15625 -1.859375l0 -9.9375l2.421875 -0.15625l0 10.046875q0 1.375 0.328125 1.859375q0.328125 0.484375 1.265625 0.484375q0.46875 0 1.171875 -0.09375l0.0625 1.734375q0 0 -0.21875 0.046875q-0.21875 0.046875 -0.421875 0.078125q-0.203125 0.03125 -0.515625 0.0625q-0.296875 0.03125 -0.546875 0.03125zm7.517273 0.046875q-2.46875 0 -3.84375 -1.40625q-1.359375 -1.421875 -1.359375 -3.90625q0 -2.4375 1.28125 -3.875q1.296875 -1.4375 3.53125 -1.453125q2.09375 0 3.25 1.328125q1.171875 1.3125 1.171875 3.5q0 0.15625 0 0.515625q0 0.34375 0 0.5l-6.78125 0q0.03125 1.4375 0.78125 2.21875q0.75 0.78125 2.0625 0.78125q1.65625 0 3.203125 -0.875l0.34375 1.734375q-1.53125 0.9375 -3.640625 0.9375zm-2.703125 -6.3125l4.453125 0q0 -1.25 -0.578125 -1.921875q-0.5625 -0.671875 -1.5625 -0.671875q-0.9375 0 -1.578125 0.65625q-0.640625 0.65625 -0.734375 1.9375z" fill-rule="nonzero"></path><path fill="#cfe2f3" d="m353.51443 101.073494l122.50394 0l0 -7.5669327l15.13385 15.133858l-15.13385 15.133858l0 -7.566925l-122.50394 0z" fill-rule="nonzero"></path><path stroke="#000000" stroke-width="1.0" stroke-linejoin="round" stroke-linecap="butt" d="m353.51443 101.073494l122.50394 0l0 -7.5669327l15.13385 15.133858l-15.13385 15.133858l0 -7.566925l-122.50394 0z" fill-rule="nonzero"></path><path fill="#fff2cc" d="m509.74802 68.98684l41.543304 0l0 83.11811l-41.543304 0z" fill-rule="nonzero"></path><path stroke="#7f6000" stroke-width="1.0" stroke-linejoin="round" stroke-linecap="butt" d="m509.74802 68.98684l41.543304 0l0 83.11811l-41.543304 0z" fill-rule="nonzero"></path><path fill="#000000" fill-opacity="0.0" d="m460.04724 15.182415l140.94489 0l0 46.740158l-140.94489 0z" fill-rule="nonzero"></path><path fill="#000000" d="m479.44458 46.664913l-0.140625 -1.96875l1.234375 0q2.140625 0 2.984375 -0.578125q0.859375 -0.5625 0.859375 -2.078125q0 -0.625 -0.046875 -1.34375q-0.25 0.328125 -0.46875 0.546875q-0.21875 0.21875 -0.546875 0.4375q-0.328125 0.203125 -0.796875 0.3125q-0.453125 0.109375 -1.03125 0.109375q-2.03125 0 -3.328125 -1.453125q-1.296875 -1.453125 -1.296875 -3.765625q0 -1.21875 0.359375 -2.21875q0.359375 -1.015625 0.96875 -1.65625q0.625 -0.65625 1.4375 -1.0q0.8125 -0.359375 1.734375 -0.359375q2.046875 0 3.046875 1.5l0.171875 -1.25l2.171875 0l0 9.484375q0 0.75 -0.078125 1.359375q-0.0625 0.609375 -0.25 1.171875q-0.1875 0.5625 -0.5 0.96875q-0.296875 0.421875 -0.75 0.765625q-0.453125 0.34375 -1.078125 0.5625q-0.609375 0.21875 -1.421875 0.328125q-0.8125 0.125 -1.84375 0.125l-1.390625 0zm2.4375 -6.265625q2.515625 0 2.53125 -3.359375l0 -0.359375q-0.015625 -1.515625 -0.625 -2.328125q-0.609375 -0.828125 -1.796875 -0.84375q-1.328125 0 -2.015625 0.921875q-0.6875 0.90625 -0.6875 2.453125q0 1.5 0.6875 2.515625q0.703125 1.0 1.90625 1.0zm11.494843 0.046875q1.234375 0 1.859375 -0.890625q0.625 -0.90625 0.625 -2.578125q0 -1.703125 -0.625 -2.59375q-0.625 -0.890625 -1.875 -0.890625q-1.234375 0 -1.859375 0.90625q-0.625 0.890625 -0.625 2.578125q0 1.671875 0.625 2.578125q0.640625 0.890625 1.875 0.890625zm-0.0625 1.84375q-2.265625 0 -3.5625 -1.453125q-1.296875 -1.46875 -1.296875 -3.859375q0 -2.46875 1.296875 -3.890625q1.296875 -1.4375 3.671875 -1.4375q2.28125 0 3.5625 1.453125q1.296875 1.453125 1.296875 3.875q0 2.4375 -1.3125 3.875q-1.296875 1.4375 -3.65625 1.4375zm9.444305 0q-1.421875 0 -2.296875 -0.78125q-0.875 -0.78125 -0.875 -2.25q0 -1.59375 1.03125 -2.359375q1.046875 -0.765625 3.140625 -0.96875q0.296875 -0.03125 0.625 -0.0625q0.328125 -0.046875 0.75 -0.078125q0.421875 -0.046875 0.65625 -0.078125l0 -0.53125q0 -0.921875 -0.421875 -1.34375q-0.421875 -0.421875 -1.296875 -0.421875q-1.25 0 -3.078125 0.6875q0 -0.03125 -0.296875 -0.84375q-0.296875 -0.8125 -0.3125 -0.828125q1.796875 -0.78125 3.90625 -0.78125q2.046875 0 2.984375 0.90625q0.9375 0.890625 0.9375 2.890625l0 6.65625l-1.796875 0q0 -0.03125 -0.203125 -0.609375q-0.1875 -0.59375 -0.1875 -0.640625q-0.765625 0.75 -1.5 1.09375q-0.71875 0.34375 -1.765625 0.34375zm0.65625 -1.71875q0.84375 0 1.46875 -0.40625q0.640625 -0.40625 0.90625 -0.96875l0 -1.96875q-0.03125 0 -0.5 0.03125q-0.453125 0.03125 -0.484375 0.03125q-1.484375 0.140625 -2.171875 0.5625q-0.671875 0.421875 -0.671875 1.375q0 0.640625 0.375 1.0q0.375 0.34375 1.078125 0.34375zm8.090546 1.703125q-0.59375 0 -1.015625 -0.421875q-0.421875 -0.421875 -0.421875 -1.0q0 -0.578125 0.40625 -1.0q0.421875 -0.4375 1.03125 -0.4375q0.5937805 0 1.0000305 0.4375q0.421875 0.421875 0.421875 1.0q0 0.578125 -0.421875 1.0q-0.40625 0.421875 -1.0000305 0.421875zm3.5119324 -0.171875l0 -13.59375l2.515625 0l0 5.5625l6.140625 0l0 -5.5625l2.515625 0l0 13.59375l-2.515625 0l0 -6.046875l-6.140625 0l0 6.046875l-2.515625 0zm16.29956 0.1875q-1.421875 0 -2.296875 -0.78125q-0.875 -0.78125 -0.875 -2.25q0 -1.59375 1.03125 -2.359375q1.046875 -0.765625 3.140625 -0.96875q0.296875 -0.03125 0.625 -0.0625q0.328125 -0.046875 0.75 -0.078125q0.421875 -0.046875 0.65625 -0.078125l0 -0.53125q0 -0.921875 -0.421875 -1.34375q-0.421875 -0.421875 -1.296875 -0.421875q-1.25 0 -3.078125 0.6875q0 -0.03125 -0.296875 -0.84375q-0.296875 -0.8125 -0.3125 -0.828125q1.796875 -0.78125 3.90625 -0.78125q2.046875 0 2.984375 0.90625q0.9375 0.890625 0.9375 2.890625l0 6.65625l-1.796875 0q0 -0.03125 -0.203125 -0.609375q-0.1875 -0.59375 -0.1875 -0.640625q-0.765625 0.75 -1.5 1.09375q-0.71875 0.34375 -1.765625 0.34375zm0.65625 -1.71875q0.84375 0 1.46875 -0.40625q0.640625 -0.40625 0.90625 -0.96875l0 -1.96875q-0.03125 0 -0.5 0.03125q-0.453125 0.03125 -0.484375 0.03125q-1.484375 0.140625 -2.171875 0.5625q-0.671875 0.421875 -0.671875 1.375q0 0.640625 0.375 1.0q0.375 0.34375 1.078125 0.34375zm7.059265 1.53125l0 -10.203125l1.953125 0l0.265625 1.296875q1.5625 -1.546875 3.46875 -1.546875q1.78125 0 2.65625 1.03125q0.890625 1.03125 0.890625 2.96875l0 6.453125l-2.4375 0l0 -6.15625q0 -1.234375 -0.390625 -1.84375q-0.390625 -0.609375 -1.40625 -0.609375q-0.78125 0 -1.4375 0.40625q-0.65625 0.40625 -0.953125 1.015625q-0.171875 0.71875 -0.171875 2.21875l0 4.96875l-2.4375 0zm15.220215 0.1875q-2.0 0 -3.140625 -1.453125q-1.140625 -1.46875 -1.140625 -3.921875q0 -2.375 1.140625 -3.8125q1.140625 -1.453125 3.125 -1.453125q2.171875 0 3.078125 1.546875q-0.09375 -0.90625 -0.09375 -1.75l0 -3.296875l2.421875 -0.15625l0 14.109375l-2.09375 0l-0.28125 -1.390625q-0.15625 0.25 -0.296875 0.4375q-0.125 0.171875 -0.390625 0.40625q-0.25 0.234375 -0.5625 0.390625q-0.296875 0.140625 -0.765625 0.234375q-0.453125 0.109375 -1.0 0.109375zm0.578125 -1.84375q2.4375 0 2.484375 -3.328125q0 -1.875 -0.640625 -2.734375q-0.625 -0.875 -1.875 -0.875q-1.09375 0 -1.75 0.875q-0.65625 0.875 -0.65625 2.59375q0 1.6875 0.65625 2.578125q0.65625 0.890625 1.78125 0.890625zm10.671997 1.796875q-1.0625 0 -1.75 -0.25q-0.6875 -0.25 -1.09375 -0.78125q-0.390625 -0.53125 -0.546875 -1.265625q-0.15625 -0.75 -0.15625 -1.859375l0 -9.9375l2.421875 -0.15625l0 10.046875q0 1.375 0.328125 1.859375q0.328125 0.484375 1.265625 0.484375q0.46875 0 1.171875 -0.09375l0.0625 1.734375q0 0 -0.21875 0.046875q-0.21875 0.046875 -0.421875 0.078125q-0.203125 0.03125 -0.515625 0.0625q-0.296875 0.03125 -0.546875 0.03125zm7.517273 0.046875q-2.46875 0 -3.84375 -1.40625q-1.359375 -1.421875 -1.359375 -3.90625q0 -2.4375 1.28125 -3.875q1.296875 -1.4375 3.53125 -1.453125q2.09375 0 3.25 1.328125q1.171875 1.3125 1.171875 3.5q0 0.15625 0 0.515625q0 0.34375 0 0.5l-6.78125 0q0.03125 1.4375 0.78125 2.21875q0.75 0.78125 2.0625 0.78125q1.65625 0 3.203125 -0.875l0.34375 1.734375q-1.53125 0.9375 -3.640625 0.9375zm-2.703125 -6.3125l4.453125 0q0 -1.25 -0.578125 -1.921875q-0.5625 -0.671875 -1.5625 -0.671875q-0.9375 0 -1.578125 0.65625q-0.640625 0.65625 -0.734375 1.9375zm8.539673 6.125l0 -10.203125l2.03125 0l0.3125 1.5625q1.015625 -1.609375 2.90625 -1.609375q0.40625 0 0.65625 0.046875l-0.046875 2.03125q-0.359375 -0.0625 -0.765625 -0.0625q-1.34375 0 -2.015625 0.71875q-0.65625 0.71875 -0.65625 1.984375l0 5.53125l-2.421875 0z" fill-rule="nonzero"></path><path fill="#fff2cc" d="m568.0315 101.07218l79.4173 0l0 -7.5669327l15.133911 15.133858l-15.133911 15.133858l0 -7.566925l-79.4173 0z" fill-rule="nonzero"></path><path stroke="#7f6000" stroke-width="1.0" stroke-linejoin="round" stroke-linecap="butt" d="m568.0315 101.07218l79.4173 0l0 -7.5669327l15.133911 15.133858l-15.133911 15.133858l0 -7.566925l-79.4173 0z" fill-rule="nonzero"></path><path fill="#000000" fill-opacity="0.0" d="m593.68506 15.182415l212.81891 0l0 46.740158l-212.81891 0z" fill-rule="nonzero"></path><path fill="#000000" d="m631.0291 42.289913q-2.96875 0 -4.71875 -1.859375q-1.75 -1.875 -1.75 -5.1875q0 -3.125 1.828125 -5.015625q1.828125 -1.90625 4.78125 -1.90625q2.375 0 4.03125 1.09375l-0.796875 1.90625q-1.578125 -0.96875 -3.1875 -0.96875q-1.875 0 -2.96875 1.34375q-1.078125 1.34375 -1.078125 3.625q0 2.359375 1.046875 3.65625q1.046875 1.28125 3.0 1.28125q1.703125 0 3.390625 -0.859375l0.328125 1.96875q-1.5625 0.921875 -3.90625 0.921875zm10.13269 -1.84375q1.234375 0 1.859375 -0.890625q0.625 -0.90625 0.625 -2.578125q0 -1.703125 -0.625 -2.59375q-0.625 -0.890625 -1.875 -0.890625q-1.234375 0 -1.859375 0.90625q-0.625 0.890625 -0.625 2.578125q0 1.671875 0.625 2.578125q0.640625 0.890625 1.875 0.890625zm-0.0625 1.84375q-2.265625 0 -3.5625 -1.453125q-1.296875 -1.46875 -1.296875 -3.859375q0 -2.46875 1.296875 -3.890625q1.296875 -1.4375 3.671875 -1.4375q2.28125 0 3.5625 1.453125q1.296875 1.453125 1.296875 3.875q0 2.4375 -1.3125 3.875q-1.296875 1.4375 -3.65625 1.4375zm6.756836 -0.1875l0 -10.203125l1.953125 0l0.265625 1.296875q1.5625 -1.546875 3.46875 -1.546875q1.78125 0 2.65625 1.03125q0.890625 1.03125 0.890625 2.96875l0 6.453125l-2.4375 0l0 -6.15625q0 -1.234375 -0.390625 -1.84375q-0.390625 -0.609375 -1.40625 -0.609375q-0.78125 0 -1.4375 0.40625q-0.65625 0.40625 -0.953125 1.015625q-0.171875 0.71875 -0.171875 2.21875l0 4.96875l-2.4375 0zm15.501404 0.140625q-1.046875 0 -1.734375 -0.25q-0.6875 -0.25 -1.078125 -0.765625q-0.390625 -0.53125 -0.5625 -1.25q-0.15625 -0.71875 -0.15625 -1.78125l0 -4.8125l-1.671875 0l0.09375 -1.3125l1.75 -0.171875l0.78125 -2.75l1.484375 -0.015625l0 2.765625l2.53125 0l0 1.484375l-2.53125 0l0 4.859375q0 1.15625 0.328125 1.65625q0.328125 0.484375 1.234375 0.484375q0.53125 0 1.125 -0.09375l0.078125 1.75q-0.03125 0 -0.234375 0.046875q-0.203125 0.03125 -0.40625 0.0625q-0.1875 0.03125 -0.484375 0.0625q-0.296875 0.03125 -0.546875 0.03125zm3.2524414 -0.140625l0 -10.203125l2.03125 0l0.3125 1.5625q1.015625 -1.609375 2.90625 -1.609375q0.40625 0 0.65625 0.046875l-0.046875 2.03125q-0.359375 -0.0625 -0.765625 -0.0625q-1.34375 0 -2.015625 0.71875q-0.65625 0.71875 -0.65625 1.984375l0 5.53125l-2.421875 0zm11.691223 -1.65625q1.234375 0 1.859375 -0.890625q0.625 -0.90625 0.625 -2.578125q0 -1.703125 -0.625 -2.59375q-0.625 -0.890625 -1.875 -0.890625q-1.234375 0 -1.859375 0.90625q-0.625 0.890625 -0.625 2.578125q0 1.671875 0.625 2.578125q0.640625 0.890625 1.875 0.890625zm-0.0625 1.84375q-2.265625 0 -3.5625 -1.453125q-1.296875 -1.46875 -1.296875 -3.859375q0 -2.46875 1.296875 -3.890625q1.296875 -1.4375 3.671875 -1.4375q2.28125 0 3.5625 1.453125q1.296875 1.453125 1.296875 3.875q0 2.4375 -1.3125 3.875q-1.296875 1.4375 -3.65625 1.4375zm10.334961 -0.046875q-1.0625 0 -1.75 -0.25q-0.6875 -0.25 -1.09375 -0.78125q-0.390625 -0.53125 -0.546875 -1.265625q-0.15625 -0.75 -0.15625 -1.859375l0 -9.9375l2.421875 -0.15625l0 10.046875q0 1.375 0.328125 1.859375q0.328125 0.484375 1.265625 0.484375q0.46875 0 1.171875 -0.09375l0.0625 1.734375q0 0 -0.21875 0.046875q-0.21875 0.046875 -0.421875 0.078125q-0.203125 0.03125 -0.515625 0.0625q-0.296875 0.03125 -0.546875 0.03125zm6.376648 0q-1.0625 0 -1.75 -0.25q-0.6875 -0.25 -1.09375 -0.78125q-0.390625 -0.53125 -0.546875 -1.265625q-0.15625 -0.75 -0.15625 -1.859375l0 -9.9375l2.421875 -0.15625l0 10.046875q0 1.375 0.328125 1.859375q0.328125 0.484375 1.265625 0.484375q0.46875 0 1.171875 -0.09375l0.0625 1.734375q0 0 -0.21875 0.046875q-0.21875 0.046875 -0.421875 0.078125q-0.203125 0.03125 -0.515625 0.0625q-0.296875 0.03125 -0.546875 0.03125zm7.517273 0.046875q-2.46875 0 -3.84375 -1.40625q-1.359375 -1.421875 -1.359375 -3.90625q0 -2.4375 1.28125 -3.875q1.296875 -1.4375 3.53125 -1.453125q2.09375 0 3.25 1.328125q1.171875 1.3125 1.171875 3.5q0 0.15625 0 0.515625q0 0.34375 0 0.5l-6.78125 0q0.03125 1.4375 0.78125 2.21875q0.75 0.78125 2.0625 0.78125q1.65625 0 3.203125 -0.875l0.34375 1.734375q-1.53125 0.9375 -3.640625 0.9375zm-2.703125 -6.3125l4.453125 0q0 -1.25 -0.578125 -1.921875q-0.5625 -0.671875 -1.5625 -0.671875q-0.9375 0 -1.578125 0.65625q-0.640625 0.65625 -0.734375 1.9375zm8.539673 6.125l0 -10.203125l2.03125 0l0.3125 1.5625q1.015625 -1.609375 2.90625 -1.609375q0.40625 0 0.65625 0.046875l-0.046875 2.03125q-0.359375 -0.0625 -0.765625 -0.0625q-1.34375 0 -2.015625 0.71875q-0.65625 0.71875 -0.65625 1.984375l0 5.53125l-2.421875 0zm8.285034 0.171875q-0.59375 0 -1.015625 -0.421875q-0.421875 -0.421875 -0.421875 -1.0q0 -0.578125 0.40625 -1.0q0.421875 -0.4375 1.03125 -0.4375q0.59375 0 1.0 0.4375q0.421875 0.421875 0.421875 1.0q0 0.578125 -0.421875 1.0q-0.40625 0.421875 -1.0 0.421875zm9.433777 0.015625q-2.96875 0 -4.71875 -1.859375q-1.75 -1.875 -1.75 -5.1875q0 -3.125 1.828125 -5.015625q1.828125 -1.90625 4.78125 -1.90625q2.375 0 4.03125 1.09375l-0.796875 1.90625q-1.578125 -0.96875 -3.1875 -0.96875q-1.875 0 -2.96875 1.34375q-1.078125 1.34375 -1.078125 3.625q0 2.359375 1.046875 3.65625q1.046875 1.28125 3.0 1.28125q1.703125 0 3.390625 -0.859375l0.328125 1.96875q-1.5625 0.921875 -3.90625 0.921875zm5.7108154 -0.1875l0 -10.203125l2.03125 0l0.3125 1.5625q1.015625 -1.609375 2.90625 -1.609375q0.40625 0 0.65625 0.046875l-0.046875 2.03125q-0.359375 -0.0625 -0.765625 -0.0625q-1.34375 0 -2.015625 0.71875q-0.65625 0.71875 -0.65625 1.984375l0 5.53125l-2.421875 0zm11.972534 0.1875q-2.46875 0 -3.84375 -1.40625q-1.359375 -1.421875 -1.359375 -3.90625q0 -2.4375 1.28125 -3.875q1.296875 -1.4375 3.53125 -1.453125q2.09375 0 3.25 1.328125q1.171875 1.3125 1.171875 3.5q0 0.15625 0 0.515625q0 0.34375 0 0.5l-6.78125 0q0.03125 1.4375 0.78125 2.21875q0.75 0.78125 2.0625 0.78125q1.65625 0 3.203125 -0.875l0.34375 1.734375q-1.53125 0.9375 -3.640625 0.9375zm-2.703125 -6.3125l4.453125 0q0 -1.25 -0.578125 -1.921875q-0.5625 -0.671875 -1.5625 -0.671875q-0.9375 0 -1.578125 0.65625q-0.640625 0.65625 -0.734375 1.9375zm11.211548 6.3125q-1.421875 0 -2.296875 -0.78125q-0.875 -0.78125 -0.875 -2.25q0 -1.59375 1.03125 -2.359375q1.046875 -0.765625 3.140625 -0.96875q0.296875 -0.03125 0.625 -0.0625q0.328125 -0.046875 0.75 -0.078125q0.421875 -0.046875 0.65625 -0.078125l0 -0.53125q0 -0.921875 -0.421875 -1.34375q-0.421875 -0.421875 -1.296875 -0.421875q-1.25 0 -3.078125 0.6875q0 -0.03125 -0.296875 -0.84375q-0.296875 -0.8125 -0.3125 -0.828125q1.796875 -0.78125 3.90625 -0.78125q2.046875 0 2.984375 0.90625q0.9375 0.890625 0.9375 2.890625l0 6.65625l-1.796875 0q0 -0.03125 -0.203125 -0.609375q-0.1875 -0.59375 -0.1875 -0.640625q-0.765625 0.75 -1.5 1.09375q-0.71875 0.34375 -1.765625 0.34375zm0.65625 -1.71875q0.84375 0 1.46875 -0.40625q0.640625 -0.40625 0.90625 -0.96875l0 -1.96875q-0.03125 0 -0.5 0.03125q-0.453125 0.03125 -0.484375 0.03125q-1.484375 0.140625 -2.171875 0.5625q-0.671875 0.421875 -0.671875 1.375q0 0.640625 0.375 1.0q0.375 0.34375 1.078125 0.34375zm11.13739 1.671875q-1.046875 0 -1.734375 -0.25q-0.6875 -0.25 -1.078125 -0.765625q-0.390625 -0.53125 -0.5625 -1.25q-0.15625 -0.71875 -0.15625 -1.78125l0 -4.8125l-1.671875 0l0.09375 -1.3125l1.75 -0.171875l0.78125 -2.75l1.484375 -0.015625l0 2.765625l2.53125 0l0 1.484375l-2.53125 0l0 4.859375q0 1.15625 0.328125 1.65625q0.328125 0.484375 1.234375 0.484375q0.53125 0 1.125 -0.09375l0.078125 1.75q-0.03125 0 -0.234375 0.046875q-0.203125 0.03125 -0.40625 0.0625q-0.1875 0.03125 -0.484375 0.0625q-0.296875 0.03125 -0.546875 0.03125zm7.9555664 0.046875q-2.46875 0 -3.84375 -1.40625q-1.359375 -1.421875 -1.359375 -3.90625q0 -2.4375 1.28125 -3.875q1.296875 -1.4375 3.53125 -1.453125q2.09375 0 3.25 1.328125q1.171875 1.3125 1.171875 3.5q0 0.15625 0 0.515625q0 0.34375 0 0.5l-6.78125 0q0.03125 1.4375 0.78125 2.21875q0.75 0.78125 2.0625 0.78125q1.65625 0 3.203125 -0.875l0.34375 1.734375q-1.53125 0.9375 -3.640625 0.9375zm-2.703125 -6.3125l4.453125 0q0 -1.25 -0.578125 -1.921875q-0.5625 -0.671875 -1.5625 -0.671875q-0.9375 0 -1.578125 0.65625q-0.640625 0.65625 -0.734375 1.9375z" fill-rule="nonzero"></path><path fill="#000000" fill-opacity="0.0" d="m166.45932 55.238846l124.66141 0l0 46.740158l-124.66141 0z" fill-rule="nonzero"></path><path fill="#000000" d="m212.99655 82.158844q-2.140625 -6.84375 -2.65625 -8.53125q-0.28125 1.03125 -0.65625 2.21875q-0.375 1.1875 -0.65625 2.046875q-0.265625 0.84375 -0.71875 2.203125q-0.4375 1.34375 -0.671875 2.0625l-1.671875 0l-2.90625 -10.171875l1.609375 0l2.1875 8.328125q0.453125 -1.484375 2.671875 -8.328125l1.75 0q2.203125 6.984375 2.59375 8.296875l2.15625 -8.296875l1.578125 0l-2.921875 10.171875l-1.6875 0zm5.5361023 2.578125q0.03125 -0.265625 0.15625 -1.421875q0.140625 -1.15625 0.203125 -1.9375q0.078125 -0.796875 0.125 -1.390625l1.828125 0l0 0.40625q-0.46875 1.84375 -1.34375 4.34375l-0.96875 0zm14.130249 -12.84375q0.421875 0 0.765625 0.046875l-0.0625 1.4375q-0.421875 -0.078125 -0.734375 -0.078125q-1.296875 0 -2.109375 0.90625q-0.8125 0.90625 -0.8125 2.234375l0 5.71875l-1.5625 0q0 -9.375 0 -10.171875l1.28125 0l0.15625 1.828125q0.53125 -0.875 1.34375 -1.390625q0.8125 -0.53125 1.734375 -0.53125zm8.09256 1.96875q-0.671875 -0.8125 -1.859375 -0.8125q-1.1875 0 -1.9375 0.84375q-0.75 0.828125 -0.890625 2.296875l5.375 0q0 -1.515625 -0.6875 -2.328125zm-1.5625 8.515625q-2.203125 0 -3.484375 -1.40625q-1.28125 -1.421875 -1.28125 -3.875q0 -2.359375 1.234375 -3.828125q1.234375 -1.46875 3.25 -1.5q1.890625 0 3.0 1.296875q1.109375 1.296875 1.109375 3.453125q0 0.109375 -0.015625 0.40625q0 0.296875 0 0.421875l-6.984375 0q0.03125 1.734375 0.890625 2.71875q0.875 0.96875 2.34375 0.96875q1.609375 0 3.234375 -0.859375l0.25 1.25q-1.5625 0.953125 -3.546875 0.953125zm9.593323 0q-1.328125 0 -2.296875 -0.6875q-0.96875 -0.6875 -1.453125 -1.859375q-0.484375 -1.171875 -0.484375 -2.6875q0 -1.578125 0.484375 -2.78125q0.484375 -1.203125 1.46875 -1.890625q0.984375 -0.703125 2.359375 -0.703125q1.890625 0 3.1875 1.65625l0.109375 -1.4375l1.375 0l0 14.5l-1.546875 0.09375l0 -4.53125q0 -0.671875 0.046875 -1.359375q-0.515625 0.765625 -1.359375 1.234375q-0.84375 0.453125 -1.890625 0.453125zm0.203125 -1.34375q1.53125 0 2.265625 -0.953125q0.734375 -0.96875 0.75 -2.828125q0 -2.046875 -0.71875 -3.09375q-0.71875 -1.0625 -2.3125 -1.0625q-0.96875 0 -1.625 0.5625q-0.640625 0.546875 -0.921875 1.421875q-0.28125 0.859375 -0.28125 2.0q0 0.859375 0.15625 1.5625q0.171875 0.703125 0.5 1.25q0.34375 0.546875 0.890625 0.84375q0.546875 0.296875 1.296875 0.296875z" fill-rule="nonzero"></path><path fill="#000000" fill-opacity="0.0" d="m343.51215 55.238846l156.44095 0l0 46.740158l-156.44095 0z" fill-rule="nonzero"></path><path fill="#000000" d="m370.02493 82.158844q-2.140625 -6.84375 -2.65625 -8.53125q-0.28125 1.03125 -0.65625 2.21875q-0.375 1.1875 -0.65625 2.046875q-0.265625 0.84375 -0.71875 2.203125q-0.4375 1.34375 -0.671875 2.0625l-1.671875 0l-2.90625 -10.171875l1.609375 0l2.1875 8.328125q0.453125 -1.484375 2.671875 -8.328125l1.75 0q2.203125 6.984375 2.59375 8.296875l2.15625 -8.296875l1.578125 0l-2.921875 10.171875l-1.6875 0zm5.5361023 2.578125q0.03125 -0.265625 0.15625 -1.421875q0.140625 -1.15625 0.203125 -1.9375q0.078125 -0.796875 0.125 -1.390625l1.828125 0l0 0.40625q-0.46875 1.84375 -1.34375 4.34375l-0.96875 0zm14.130249 -12.84375q0.421875 0 0.765625 0.046875l-0.0625 1.4375q-0.421875 -0.078125 -0.734375 -0.078125q-1.296875 0 -2.109375 0.90625q-0.8125 0.90625 -0.8125 2.234375l0 5.71875l-1.5625 0q0 -9.375 0 -10.171875l1.28125 0l0.15625 1.828125q0.53125 -0.875 1.34375 -1.390625q0.8125 -0.53125 1.734375 -0.53125zm8.09256 1.96875q-0.671875 -0.8125 -1.859375 -0.8125q-1.1875 0 -1.9375 0.84375q-0.75 0.828125 -0.890625 2.296875l5.375 0q0 -1.515625 -0.6875 -2.328125zm-1.5625 8.515625q-2.203125 0 -3.484375 -1.40625q-1.28125 -1.421875 -1.28125 -3.875q0 -2.359375 1.234375 -3.828125q1.234375 -1.46875 3.25 -1.5q1.890625 0 3.0 1.296875q1.109375 1.296875 1.109375 3.453125q0 0.109375 -0.015625 0.40625q0 0.296875 0 0.421875l-6.984375 0q0.03125 1.734375 0.890625 2.71875q0.875 0.96875 2.34375 0.96875q1.609375 0 3.234375 -0.859375l0.25 1.25q-1.5625 0.953125 -3.546875 0.953125zm9.593323 0q-1.328125 0 -2.296875 -0.6875q-0.96875 -0.6875 -1.453125 -1.859375q-0.484375 -1.171875 -0.484375 -2.6875q0 -1.578125 0.484375 -2.78125q0.484375 -1.203125 1.46875 -1.890625q0.984375 -0.703125 2.359375 -0.703125q1.890625 0 3.1875 1.65625l0.109375 -1.4375l1.375 0l0 14.5l-1.546875 0.09375l0 -4.53125q0 -0.671875 0.046875 -1.359375q-0.515625 0.765625 -1.359375 1.234375q-0.84375 0.453125 -1.890625 0.453125zm0.203125 -1.34375q1.53125 0 2.265625 -0.953125q0.734375 -0.96875 0.75 -2.828125q0 -2.046875 -0.71875 -3.09375q-0.71875 -1.0625 -2.3125 -1.0625q-0.96875 0 -1.625 0.5625q-0.640625 0.546875 -0.921875 1.421875q-0.28125 0.859375 -0.28125 2.0q0 0.859375 0.15625 1.5625q0.171875 0.703125 0.5 1.25q0.34375 0.546875 0.890625 0.84375q0.546875 0.296875 1.296875 0.296875zm6.719116 3.703125q0.03125 -0.265625 0.15625 -1.421875q0.140625 -1.15625 0.203125 -1.9375q0.078125 -0.796875 0.125 -1.390625l1.828125 0l0 0.40625q-0.46875 1.84375 -1.34375 4.34375l-0.96875 0zm9.567749 1.84375l0 -14.59375l1.359375 0l0.15625 1.375q1.328125 -1.59375 3.203125 -1.59375q1.390625 0 2.359375 0.703125q0.96875 0.6875 1.421875 1.875q0.453125 1.1875 0.453125 2.78125q0 1.515625 -0.5 2.703125q-0.5 1.171875 -1.46875 1.859375q-0.96875 0.6875 -2.265625 0.6875q-0.984375 0 -1.84375 -0.4375q-0.859375 -0.453125 -1.375 -1.171875q0.046875 1.0 0.046875 1.953125l0 3.75l-1.546875 0.109375zm4.5 -5.515625q0.71875 0 1.265625 -0.3125q0.5625 -0.328125 0.90625 -0.875q0.34375 -0.5625 0.515625 -1.265625q0.171875 -0.71875 0.171875 -1.546875q0 -1.75 -0.734375 -2.859375q-0.71875 -1.125 -2.140625 -1.125q-2.953125 0 -2.953125 3.8125q0 2.078125 0.6875 3.125q0.703125 1.046875 2.28125 1.046875zm9.377991 0.046875q1.109375 0 1.9375 -0.59375q0.84375 -0.609375 1.09375 -1.640625l0 -1.71875q-0.046875 0 -0.5625 0.046875q-0.515625 0.046875 -0.671875 0.046875q-2.015625 0.1875 -2.8125 0.671875q-0.796875 0.484375 -0.796875 1.546875q0 0.8125 0.484375 1.234375q0.484375 0.40625 1.328125 0.40625zm3.375 1.046875q-0.140625 -0.59375 -0.28125 -1.28125q-0.84375 0.84375 -1.59375 1.171875q-0.734375 0.328125 -1.734375 0.328125q-1.421875 0 -2.296875 -0.75q-0.859375 -0.75 -0.859375 -2.15625q0 -1.546875 1.171875 -2.296875q1.1875 -0.765625 3.421875 -0.9375q0.296875 -0.03125 0.90625 -0.078125q0.625 -0.0625 0.9375 -0.09375l0 -0.890625q0 -1.078125 -0.5 -1.59375q-0.5 -0.515625 -1.578125 -0.515625q-1.5 0 -3.03125 0.734375q-0.046875 -0.109375 -0.25 -0.640625q-0.1875 -0.53125 -0.203125 -0.5625q0.6875 -0.375 1.609375 -0.59375q0.9375 -0.234375 1.90625 -0.234375q1.890625 0 2.734375 0.828125q0.84375 0.828125 0.84375 2.828125l0 6.734375l-1.203125 0zm8.252228 -10.265625q0.421875 0 0.765625 0.046875l-0.0625 1.4375q-0.421875 -0.078125 -0.734375 -0.078125q-1.296875 0 -2.109375 0.90625q-0.8125 0.90625 -0.8125 2.234375l0 5.71875l-1.5625 0q0 -9.375 0 -10.171875l1.28125 0l0.15625 1.828125q0.53125 -0.875 1.34375 -1.390625q0.8125 -0.53125 1.734375 -0.53125zm5.170685 9.21875q1.109375 0 1.9375 -0.59375q0.84375 -0.609375 1.09375 -1.640625l0 -1.71875q-0.046875 0 -0.5625 0.046875q-0.515625 0.046875 -0.671875 0.046875q-2.015625 0.1875 -2.8125 0.671875q-0.796875 0.484375 -0.796875 1.546875q0 0.8125 0.484375 1.234375q0.484375 0.40625 1.328125 0.40625zm3.375 1.046875q-0.140625 -0.59375 -0.28125 -1.28125q-0.84375 0.84375 -1.59375 1.171875q-0.734375 0.328125 -1.734375 0.328125q-1.421875 0 -2.296875 -0.75q-0.859375 -0.75 -0.859375 -2.15625q0 -1.546875 1.171875 -2.296875q1.1875 -0.765625 3.421875 -0.9375q0.296875 -0.03125 0.90625 -0.078125q0.625 -0.0625 0.9375 -0.09375l0 -0.890625q0 -1.078125 -0.5 -1.59375q-0.5 -0.515625 -1.578125 -0.515625q-1.5 0 -3.03125 0.734375q-0.046875 -0.109375 -0.25 -0.640625q-0.1875 -0.53125 -0.203125 -0.5625q0.6875 -0.375 1.609375 -0.59375q0.9375 -0.234375 1.90625 -0.234375q1.890625 0 2.734375 0.828125q0.84375 0.828125 0.84375 2.828125l0 6.734375l-1.203125 0zm16.611603 0l0 -5.296875q0 -0.75 -0.03125 -1.25q-0.03125 -0.5 -0.15625 -1.015625q-0.109375 -0.515625 -0.328125 -0.8125q-0.203125 -0.3125 -0.578125 -0.5q-0.359375 -0.1875 -0.875 -0.1875q-1.03125 0 -1.75 0.546875q-0.71875 0.546875 -1.015625 1.53125q-0.09375 0.671875 -0.09375 1.4375l0 5.546875l-1.546875 0l0 -5.46875q0 -0.6875 -0.046875 -1.1875q-0.046875 -0.5 -0.171875 -0.984375q-0.125 -0.484375 -0.34375 -0.78125q-0.21875 -0.296875 -0.59375 -0.46875q-0.359375 -0.171875 -0.859375 -0.171875q-1.109375 0 -1.875 0.5625q-0.75 0.5625 -1.0 1.5q-0.09375 0.71875 -0.09375 1.546875l0 5.453125l-1.546875 0q-0.015625 -9.546875 -0.015625 -10.171875l1.296875 0l0.203125 1.453125q0.453125 -0.703125 1.296875 -1.1875q0.859375 -0.484375 1.953125 -0.484375q0.5625 0 1.03125 0.125q0.484375 0.109375 0.796875 0.28125q0.328125 0.171875 0.578125 0.421875q0.25 0.25 0.390625 0.484375q0.140625 0.234375 0.234375 0.5q1.109375 -1.8125 3.40625 -1.8125q1.703125 0 2.484375 0.96875q0.796875 0.96875 0.796875 2.875l0 6.546875l-1.546875 0zm6.2605286 0.21875q-1.03125 0 -1.921875 -0.21875q-0.875 -0.234375 -1.421875 -0.578125l0.203125 -1.3125q1.546875 0.828125 3.046875 0.828125q2.25 0 2.328125 -1.59375q0 -0.6875 -0.484375 -1.078125q-0.484375 -0.390625 -1.890625 -0.875l-0.78125 -0.265625q-1.328125 -0.4375 -1.90625 -1.09375q-0.5625 -0.671875 -0.578125 -1.640625q0 -1.203125 0.953125 -1.984375q0.96875 -0.796875 2.640625 -0.796875q1.71875 0 3.140625 0.671875l-0.453125 1.1875q-1.4375 -0.59375 -2.6875 -0.59375q-0.96875 0 -1.53125 0.390625q-0.546875 0.375 -0.546875 1.078125q0 0.59375 0.390625 0.90625q0.40625 0.3125 1.609375 0.71875q0.296875 0.109375 0.765625 0.265625q1.53125 0.5 2.171875 1.1875q0.640625 0.671875 0.640625 1.828125q-0.015625 1.40625 -1.015625 2.1875q-0.984375 0.78125 -2.671875 0.78125z" fill-rule="nonzero"></path><path fill="#000000" fill-opacity="0.0" d="m631.19684 178.40814l177.66931 0l0 46.740158l-177.66931 0z" fill-rule="nonzero"></path><path fill="#000000" d="m642.4312 201.93752l2.546875 -6.78125l1.5625 0l-2.546875 6.796875q-0.25 0.671875 -0.234375 1.140625q0.015625 0.453125 0.265625 0.71875q0.265625 0.25 0.671875 0.359375q0.421875 0.109375 1.0 0.109375q1.203125 0 2.078125 -0.53125q0.875 -0.53125 1.34375 -1.796875l2.546875 -6.796875l1.5625 0l-2.546875 6.78125q-0.28125 0.78125 -0.734375 1.40625q-0.453125 0.609375 -0.984375 1.03125q-0.53125 0.40625 -1.171875 0.671875q-0.625 0.265625 -1.265625 0.390625q-0.625 0.125 -1.3125 0.125q-0.671875 0 -1.21875 -0.125q-0.546875 -0.125 -0.96875 -0.390625q-0.421875 -0.28125 -0.65625 -0.6875q-0.234375 -0.40625 -0.234375 -1.03125q0.015625 -0.625 0.296875 -1.390625zm12.067322 3.609375q-1.03125 0 -1.828125 -0.21875q-0.796875 -0.234375 -1.21875 -0.578125l0.6875 -1.3125q1.25 0.828125 2.75 0.828125q2.25 0 2.921875 -1.59375q0.25 -0.6875 -0.09375 -1.078125q-0.328125 -0.390625 -1.546875 -0.875l-0.6875 -0.265625q-1.15625 -0.4375 -1.484375 -1.09375q-0.328125 -0.671875 0.03125 -1.640625q0.453125 -1.203125 1.703125 -1.984375q1.25 -0.796875 2.921875 -0.796875q1.71875 0 2.890625 0.671875l-0.890625 1.1875q-1.21875 -0.59375 -2.46875 -0.59375q-0.96875 0 -1.671875 0.390625q-0.6875 0.375 -0.953125 1.078125q-0.21875 0.59375 0.0625 0.90625q0.28125 0.3125 1.328125 0.71875q0.25 0.109375 0.65625 0.265625q1.34375 0.5 1.734375 1.1875q0.390625 0.671875 -0.046875 1.828125q-0.546875 1.40625 -1.828125 2.1875q-1.28125 0.78125 -2.96875 0.78125zm14.712585 -8.515625q-0.375 -0.8125 -1.5625 -0.8125q-1.1875 0 -2.25 0.84375q-1.0625 0.828125 -1.765625 2.296875l5.375 0q0.578125 -1.515625 0.203125 -2.328125zm-4.765625 8.515625q-2.203125 0 -2.953125 -1.40625q-0.75 -1.421875 0.171875 -3.875q0.875 -2.359375 2.65625 -3.828125q1.796875 -1.46875 3.8125 -1.5q1.890625 0 2.515625 1.296875q0.625 1.296875 -0.1875 3.453125q-0.03125 0.109375 -0.15625 0.40625q-0.109375 0.296875 -0.15625 0.421875l-6.984375 0q-0.625 1.734375 -0.125 2.71875q0.5 0.96875 1.96875 0.96875q1.609375 0 3.5625 -0.859375l-0.21875 1.25q-1.921875 0.953125 -3.90625 0.953125zm14.280823 -10.484375q0.421875 0 0.75 0.046875l-0.59375 1.4375q-0.390625 -0.078125 -0.703125 -0.078125q-1.296875 0 -2.453125 0.90625q-1.15625 0.90625 -1.65625 2.234375l-2.140625 5.71875l-1.5625 0q3.515625 -9.375 3.8125 -10.171875l1.28125 0l-0.53125 1.828125q0.859375 -0.875 1.859375 -1.390625q1.015625 -0.53125 1.9375 -0.53125zm7.2631836 10.484375q-2.234375 0 -2.953125 -1.453125q-0.71875 -1.46875 0.171875 -3.828125q0.890625 -2.375 2.71875 -3.84375q1.84375 -1.484375 4.078125 -1.484375q0.78125 0 1.453125 0.203125q0.671875 0.1875 0.984375 0.5l-0.875 1.203125q-0.875 -0.578125 -2.078125 -0.578125q-1.46875 0 -2.734375 1.078125q-1.265625 1.078125 -1.96875 2.9375q-0.671875 1.8125 -0.234375 2.875q0.453125 1.0625 1.96875 1.0625q1.1875 0 2.671875 -0.640625l-0.265625 1.234375q-1.28125 0.734375 -2.9375 0.734375zm7.630493 -5.28125q-0.6875 1.8125 -0.296875 2.90625q0.40625 1.078125 1.953125 1.078125q1.515625 0 2.6875 -1.078125q1.1875 -1.09375 1.875 -2.921875q0.703125 -1.875 0.328125 -2.9375q-0.359375 -1.078125 -1.921875 -1.078125q-1.53125 0 -2.734375 1.09375q-1.203125 1.09375 -1.890625 2.9375zm7.828125 -0.03125q-0.875 2.359375 -2.703125 3.84375q-1.8125 1.46875 -4.03125 1.46875q-2.140625 0 -2.859375 -1.484375q-0.703125 -1.484375 0.171875 -3.8125q0.890625 -2.375 2.703125 -3.84375q1.8125 -1.46875 4.03125 -1.46875q2.1875 0 2.875 1.46875q0.703125 1.46875 -0.1875 3.828125zm4.4717407 3.96875q1.53125 0 2.640625 -0.984375q1.125 -0.984375 1.8125 -2.8125q0.78125 -2.0625 0.453125 -3.09375q-0.328125 -1.046875 -1.9375 -1.046875q-0.71875 0 -1.390625 0.3125q-0.65625 0.296875 -1.203125 0.84375q-0.53125 0.546875 -0.96875 1.265625q-0.4375 0.703125 -0.765625 1.546875q-0.4375 1.1875 -0.46875 2.0625q-0.03125 0.875 0.421875 1.390625q0.453125 0.515625 1.40625 0.515625zm3.171875 -0.34375q-0.78125 0.765625 -1.796875 1.21875q-1.0 0.453125 -2.015625 0.453125q-2.015625 0 -2.625 -1.421875q-0.59375 -1.4375 0.328125 -3.90625q0.890625 -2.359375 2.578125 -3.8125q1.703125 -1.453125 3.65625 -1.453125q1.0 0 1.734375 0.4375q0.734375 0.4375 0.90625 1.1875l0.3125 -0.890625l1.671875 -4.46875l1.5625 -0.09375l-5.328125 14.21875l-1.328125 0l0.34375 -1.46875zm12.453491 -6.828125q-0.375 -0.8125 -1.5625 -0.8125q-1.1875 0 -2.25 0.84375q-1.0625 0.828125 -1.765625 2.296875l5.375 0q0.578125 -1.515625 0.203125 -2.328125zm-4.765625 8.515625q-2.203125 0 -2.953125 -1.40625q-0.75 -1.421875 0.171875 -3.875q0.875 -2.359375 2.65625 -3.828125q1.796875 -1.46875 3.8125 -1.5q1.890625 0 2.515625 1.296875q0.625 1.296875 -0.1875 3.453125q-0.03125 0.109375 -0.15625 0.40625q-0.109375 0.296875 -0.15625 0.421875l-6.984375 0q-0.625 1.734375 -0.125 2.71875q0.5 0.96875 1.96875 0.96875q1.609375 0 3.5625 -0.859375l-0.21875 1.25q-1.921875 0.953125 -3.90625 0.953125z" fill-rule="nonzero"></path><path fill="#000000" fill-opacity="0.0" d="m535.51215 55.238846l156.44092 0l0 46.740158l-156.44092 0z" fill-rule="nonzero"></path><path fill="#000000" d="m606.9004 82.377594q-2.234375 0 -3.5 -1.453125q-1.265625 -1.46875 -1.265625 -3.828125q0 -2.375 1.28125 -3.84375q1.296875 -1.484375 3.53125 -1.484375q0.78125 0 1.515625 0.203125q0.75 0.1875 1.171875 0.5l-0.421875 1.203125q-1.09375 -0.578125 -2.296875 -0.578125q-1.46875 0 -2.328125 1.078125q-0.859375 1.078125 -0.859375 2.9375q0 1.8125 0.84375 2.875q0.84375 1.0625 2.359375 1.0625q1.1875 0 2.4375 -0.640625l0.203125 1.234375q-1.015625 0.734375 -2.671875 0.734375zm7.771118 -0.03125q-1.5 0 -2.140625 -0.734375q-0.625 -0.734375 -0.671875 -2.359375l0 -6.125l-1.5 0l0.0625 -1.015625l1.4375 -0.125l0.53125 -2.328125l1.015625 -0.046875l0 2.375l2.828125 0l0 1.140625l-2.828125 0l0 5.84375q0 1.15625 0.34375 1.640625q0.359375 0.46875 1.21875 0.46875q0.296875 0 1.328125 -0.15625l0.0625 1.21875q-1.109375 0.203125 -1.6875 0.203125zm5.9052124 -5.359375l-3.59375 -5.0l1.78125 0l2.71875 3.875l2.71875 -3.875l1.78125 0l-3.609375 5.015625l3.703125 5.15625l-1.71875 0l-2.875 -4.09375l-2.859375 4.09375l-1.78125 0l3.734375 -5.171875z" fill-rule="nonzero"></path><path fill="#cfe2f3" d="m80.414696 186.64436l54.866142 0l0 30.267715l-54.866142 0z" fill-rule="nonzero"></path><path stroke="#0b5394" stroke-width="1.0" stroke-linejoin="round" stroke-linecap="butt" d="m80.414696 186.64436l54.866142 0l0 30.267715l-54.866142 0z" fill-rule="nonzero"></path><path fill="#000000" fill-opacity="0.0" d="m138.87665 178.40814l177.66928 0l0 46.740158l-177.66928 0z" fill-rule="nonzero"></path><path fill="#000000" d="m158.18915 197.03127q-0.375 -0.8125 -1.5625 -0.8125q-1.1875 0 -2.25 0.84375q-1.0625 0.828125 -1.765625 2.296875l5.375 0q0.578125 -1.515625 0.203125 -2.328125zm-4.765625 8.515625q-2.203125 0 -2.953125 -1.40625q-0.75 -1.421875 0.171875 -3.875q0.875 -2.359375 2.65625 -3.828125q1.796875 -1.46875 3.8125 -1.5q1.890625 0 2.515625 1.296875q0.625 1.296875 -0.1875 3.453125q-0.03125 0.109375 -0.15625 0.40625q-0.109375 0.296875 -0.15625 0.421875l-6.984375 0q-0.625 1.734375 -0.125 2.71875q0.5 0.96875 1.96875 0.96875q1.609375 0 3.5625 -0.859375l-0.21875 1.25q-1.921875 0.953125 -3.90625 0.953125zm10.499573 -5.390625l-1.71875 -5.0l1.78125 0l1.265625 3.875l4.171875 -3.875l1.78125 0l-5.484375 5.015625l1.765625 5.15625l-1.71875 0l-1.34375 -4.09375l-4.390625 4.09375l-1.78125 0l5.671875 -5.171875zm8.175613 5.359375q-1.5 0 -1.859375 -0.734375q-0.34375 -0.734375 0.21875 -2.359375l2.296875 -6.125l-1.5 0l0.4375 -1.015625l1.484375 -0.125l1.40625 -2.328125l1.03125 -0.046875l-0.890625 2.375l2.828125 0l-0.421875 1.140625l-2.828125 0l-2.1875 5.84375q-0.4375 1.15625 -0.265625 1.640625q0.171875 0.46875 1.03125 0.46875q0.296875 0 1.390625 -0.15625l-0.40625 1.21875q-1.1875 0.203125 -1.765625 0.203125zm12.280243 -8.484375q-0.375 -0.8125 -1.5625 -0.8125q-1.1875 0 -2.25 0.84375q-1.0625 0.828125 -1.765625 2.296875l5.375 0q0.578125 -1.515625 0.203125 -2.328125zm-4.765625 8.515625q-2.203125 0 -2.953125 -1.40625q-0.75 -1.421875 0.171875 -3.875q0.875 -2.359375 2.65625 -3.828125q1.796875 -1.46875 3.8125 -1.5q1.890625 0 2.515625 1.296875q0.625 1.296875 -0.1875 3.453125q-0.03125 0.109375 -0.15625 0.40625q-0.109375 0.296875 -0.15625 0.421875l-6.984375 0q-0.625 1.734375 -0.125 2.71875q0.5 0.96875 1.96875 0.96875q1.609375 0 3.5625 -0.859375l-0.21875 1.25q-1.921875 0.953125 -3.90625 0.953125zm14.280823 -10.484375q0.421875 0 0.75 0.046875l-0.59375 1.4375q-0.390625 -0.078125 -0.703125 -0.078125q-1.296875 0 -2.453125 0.90625q-1.15625 0.90625 -1.65625 2.234375l-2.140625 5.71875l-1.5625 0q3.515625 -9.375 3.8125 -10.171875l1.28125 0l-0.53125 1.828125q0.859375 -0.875 1.859375 -1.390625q1.015625 -0.53125 1.9375 -0.53125zm-1.6105652 10.265625l3.8125 -10.171875l1.296875 0l-0.34375 1.453125q0.875 -0.75 1.953125 -1.203125q1.078125 -0.46875 2.125 -0.46875q1.765625 0 2.234375 0.984375q0.484375 0.984375 -0.28125 3.046875l-2.390625 6.359375l-1.546875 0q2.296875 -6.125 2.453125 -6.5625q0.453125 -1.296875 0.1875 -1.890625q-0.265625 -0.609375 -1.40625 -0.609375q-1.1875 0 -2.203125 0.578125q-1.015625 0.578125 -1.609375 1.484375q-0.328125 0.625 -0.625 1.4375l-2.09375 5.5625l-1.5625 0zm14.11377 -1.046875q1.109375 0 2.171875 -0.59375q1.0625 -0.609375 1.703125 -1.640625l0.640625 -1.71875q-0.046875 0 -0.578125 0.046875q-0.53125 0.046875 -0.6875 0.046875q-2.09375 0.1875 -3.078125 0.671875q-0.96875 0.484375 -1.359375 1.546875q-0.3125 0.8125 0.015625 1.234375q0.328125 0.40625 1.171875 0.40625zm2.984375 1.046875q0.078125 -0.59375 0.203125 -1.28125q-1.15625 0.84375 -2.03125 1.171875q-0.859375 0.328125 -1.859375 0.328125q-1.421875 0 -2.015625 -0.75q-0.578125 -0.75 -0.046875 -2.15625q0.578125 -1.546875 2.03125 -2.296875q1.46875 -0.765625 3.765625 -0.9375q0.3125 -0.03125 0.953125 -0.078125q0.640625 -0.0625 0.953125 -0.09375l0.34375 -0.890625q0.40625 -1.078125 0.09375 -1.59375q-0.3125 -0.515625 -1.390625 -0.515625q-1.5 0 -3.296875 0.734375q-0.015625 -0.109375 -0.015625 -0.640625q0.015625 -0.53125 0.015625 -0.5625q0.828125 -0.375 1.828125 -0.59375q1.015625 -0.234375 1.984375 -0.234375q1.890625 0 2.421875 0.828125q0.546875 0.828125 -0.203125 2.828125l-2.53125 6.734375l-1.203125 0zm6.345978 0.1875q-1.484375 0 -1.796875 -0.796875q-0.3125 -0.796875 0.421875 -2.78125l4.03125 -10.734375l1.578125 -0.09375l-3.828125 10.21875q-0.234375 0.625 -0.375 1.015625q-0.125 0.375 -0.203125 0.75q-0.078125 0.359375 -0.0625 0.546875q0.015625 0.1875 0.140625 0.34375q0.125 0.140625 0.34375 0.203125q0.21875 0.046875 0.59375 0.046875q0.296875 0 1.203125 -0.109375l-0.375 1.234375q-1.015625 0.15625 -1.671875 0.15625zm11.400757 0.03125q-2.234375 0 -2.953125 -1.453125q-0.71875 -1.46875 0.171875 -3.828125q0.890625 -2.375 2.71875 -3.84375q1.84375 -1.484375 4.078125 -1.484375q0.78125 0 1.453125 0.203125q0.671875 0.1875 0.984375 0.5l-0.875 1.203125q-0.875 -0.578125 -2.078125 -0.578125q-1.46875 0 -2.734375 1.078125q-1.265625 1.078125 -1.96875 2.9375q-0.671875 1.8125 -0.234375 2.875q0.453125 1.0625 1.96875 1.0625q1.1875 0 2.671875 -0.640625l-0.265625 1.234375q-1.28125 0.734375 -2.9375 0.734375zm7.630493 -5.28125q-0.6875 1.8125 -0.296875 2.90625q0.40625 1.078125 1.953125 1.078125q1.515625 0 2.6875 -1.078125q1.1875 -1.09375 1.875 -2.921875q0.703125 -1.875 0.328125 -2.9375q-0.359375 -1.078125 -1.921875 -1.078125q-1.53125 0 -2.734375 1.09375q-1.203125 1.09375 -1.890625 2.9375zm7.828125 -0.03125q-0.875 2.359375 -2.703125 3.84375q-1.8125 1.46875 -4.03125 1.46875q-2.140625 0 -2.859375 -1.484375q-0.703125 -1.484375 0.171875 -3.8125q0.890625 -2.375 2.703125 -3.84375q1.8125 -1.46875 4.03125 -1.46875q2.1875 0 2.875 1.46875q0.703125 1.46875 -0.1875 3.828125zm4.471756 3.96875q1.53125 0 2.640625 -0.984375q1.125 -0.984375 1.8125 -2.8125q0.78125 -2.0625 0.453125 -3.09375q-0.328125 -1.046875 -1.9375 -1.046875q-0.71875 0 -1.390625 0.3125q-0.65625 0.296875 -1.203125 0.84375q-0.53125 0.546875 -0.96875 1.265625q-0.4375 0.703125 -0.765625 1.546875q-0.4375 1.1875 -0.46875 2.0625q-0.03125 0.875 0.421875 1.390625q0.453125 0.515625 1.40625 0.515625zm3.171875 -0.34375q-0.78125 0.765625 -1.796875 1.21875q-1.0 0.453125 -2.015625 0.453125q-2.015625 0 -2.625 -1.421875q-0.59375 -1.4375 0.328125 -3.90625q0.890625 -2.359375 2.578125 -3.8125q1.703125 -1.453125 3.65625 -1.453125q1.0 0 1.734375 0.4375q0.734375 0.4375 0.90625 1.1875l0.3125 -0.890625l1.671875 -4.46875l1.5625 -0.09375l-5.328125 14.21875l-1.328125 0l0.34375 -1.46875zm12.453461 -6.828125q-0.375 -0.8125 -1.5625 -0.8125q-1.1875 0 -2.25 0.84375q-1.0625 0.828125 -1.765625 2.296875l5.375 0q0.578125 -1.515625 0.203125 -2.328125zm-4.765625 8.515625q-2.2031097 0 -2.9531097 -1.40625q-0.75 -1.421875 0.171875 -3.875q0.87498474 -2.359375 2.6562347 -3.828125q1.796875 -1.46875 3.8125 -1.5q1.890625 0 2.515625 1.296875q0.625 1.296875 -0.1875 3.453125q-0.03125 0.109375 -0.15625 0.40625q-0.109375 0.296875 -0.15625 0.421875l-6.984375 0q-0.625 1.734375 -0.125 2.71875q0.5 0.96875 1.96875 0.96875q1.609375 0 3.5625 -0.859375l-0.21875 1.25q-1.921875 0.953125 -3.90625 0.953125z" fill-rule="nonzero"></path></g></svg>

